<svg preserveAspectRatio="none" width="100%" height="100%" overflow="visible" style="display: block;" viewBox="0 0 13.4823 16.5687" fill="none" xmlns="http://www.w3.org/2000/svg">
<path id="Vector" d="M12.6379 10.1286C12.3251 10.7123 11.96 11.2697 11.543 11.8011C11.1256 12.3326 10.6461 12.7703 10.104 13.1142C9.5616 13.458 8.8734 13.6299 8.0395 13.6299C6.9965 13.6299 6.079 13.3539 5.2867 12.8015C4.494 12.2495 3.879 11.4679 3.4411 10.4569C3.0031 9.44629 2.7841 8.24259 2.7841 6.84619C2.7841 6.01289 2.8829 5.25719 3.0812 4.57969C3.2792 3.90259 3.5711 3.30329 3.9571 2.78209C4.3427 2.26141 4.812 1.85988 5.3648 1.57859C5.917 1.29717 6.5379 1.15659 7.2261 1.15659C7.9143 1.15659 8.4406 1.32365 8.8058 1.65682C9.1705 1.99035 9.3532 2.45929 9.3532 3.06369C9.3532 3.27219 9.3478 3.44409 9.3375 3.57939C9.3267 3.71519 9.3219 3.88719 9.3219 4.09519C9.3219 4.61639 9.4626 5.05399 9.7441 5.40829C10.0257 5.76289 10.4792 5.93969 11.1049 5.93969C11.6886 5.93969 12.1265 5.76779 12.4188 5.42389C12.7106 5.07999 12.8567 4.69999 12.8567 4.28279C12.8567 3.46999 12.6377 2.74069 12.1998 2.09447C11.7619 1.4487 11.1466 0.93776 10.3542 0.5627C9.5614 0.18753 8.6024 0 7.4764 0C6.5794 0 5.6825 0.1827 4.7861 0.54706C3.8891 0.912 3.0812 1.44882 2.3617 2.15706C1.6423 2.86579 1.0684 3.74649 0.6413 4.79869C0.2135 5.85129 0 7.08619 0 8.50319C0 10.2124 0.302101 11.6715 0.907101 12.8798C1.5119 14.0887 2.3149 15.0056 3.3158 15.6309C4.3168 16.2562 5.443 16.5687 6.6942 16.5687C7.7158 16.5687 8.5971 16.3758 9.3375 15.9904C10.0775 15.605 10.7138 15.1102 11.2457 14.5055C11.7775 13.9012 12.2154 13.2502 12.5595 12.5516C12.9036 11.8536 13.211 11.2025 13.4823 10.5978L12.6379 10.1286Z" fill="var(--fill-0, #E3E3E3)"/>
</svg>
