<svg preserveAspectRatio="none" width="100%" height="100%" overflow="visible" style="display: block;" viewBox="0 0 33.2316 23.2587" fill="none" xmlns="http://www.w3.org/2000/svg">
<path id="Vector" d="M30.9479 20.1321V12.5042C30.9479 11.4208 30.7916 10.4722 30.4788 9.6594C30.166 8.84658 29.6811 8.21105 29.0243 7.75246C28.3674 7.29423 27.5277 7.0647 26.5061 7.0647C25.7969 7.0647 25.1033 7.18976 24.4258 7.43976C23.7479 7.68987 23.1379 8.00246 22.5958 8.37764C22.0534 8.75282 21.5949 9.14893 21.2196 9.56564C21.2196 9.19058 21.2244 8.78952 21.2352 8.36211C21.2455 7.93529 21.2611 7.54446 21.2821 7.18987L21.0943 7.00223L15.62 9.34693L15.9954 10.2222C16.0995 10.1807 16.2192 10.1441 16.3552 10.1128C16.4906 10.0815 16.6626 10.0658 16.8714 10.0658C17.3924 10.0658 17.7052 10.2329 17.8099 10.5661C17.9139 10.8996 17.9662 11.3686 17.9662 11.9729V20.1635C17.9662 20.8933 17.7888 21.4296 17.4343 21.7735C17.0827 22.1144 16.5055 22.2857 15.7035 22.2888C14.9011 22.2857 14.3134 22.1144 13.9413 21.7735C13.566 21.4296 13.3784 20.8826 13.3784 20.1323V12.9421C13.3784 12.2754 13.3832 11.5929 13.394 10.8944C13.4043 10.1964 13.4145 9.52964 13.4253 8.89376C13.4356 8.25823 13.4512 7.69024 13.4722 7.19L13.2844 7.00235L7.7788 9.34705L8.1542 10.2223C8.2583 10.1808 8.378 10.1442 8.514 10.1129C8.6493 10.0816 8.8214 10.066 9.0301 10.066C9.5512 10.066 9.864 10.233 9.9686 10.5662C10.0727 10.8997 10.125 11.3687 10.125 11.973V20.1636C10.125 20.8934 9.9578 21.4297 9.6245 21.7736C9.2914 22.1168 8.7089 22.2886 7.8779 22.2894C7.0674 22.2887 6.4848 22.1169 6.1313 21.7736C5.7764 21.4297 5.5994 20.8827 5.5994 20.1324V5.97095C5.5994 5.32518 5.6043 4.64764 5.6151 3.93893C5.6253 3.23058 5.6356 2.55317 5.6464 1.90693C5.6567 1.26117 5.6723 0.687764 5.6933 0.187528L5.5055 0L0 2.3134L0.344101 3.1887C0.448201 3.14717 0.562998 3.11046 0.688198 3.07929C0.813198 3.04799 1.001 3.03246 1.2513 3.03246C1.7517 3.03246 2.0592 3.19952 2.1741 3.53258C2.2885 3.86623 2.3461 4.33517 2.3461 4.9394V20.1639C2.3461 20.9141 2.1687 21.4563 1.8143 21.7894C1.4594 22.123 0.8652 22.2896 0.0312996 22.2896V23.2587H23.0026V22.2896C22.377 22.2896 21.9234 22.123 21.6418 21.7894C21.3602 21.4562 21.2196 20.9039 21.2196 20.1326V11.098C21.6575 10.6188 22.2049 10.2021 22.8618 9.84753C23.5187 9.4934 24.1389 9.31599 24.7231 9.31599C25.8282 9.31599 26.5999 9.6707 27.0378 10.3789C27.4759 11.0876 27.6948 12.0357 27.6948 13.2237V20.1639C27.6948 20.9141 27.554 21.4563 27.2724 21.7894C26.9909 22.123 26.5374 22.2896 25.9117 22.2896V23.2587H33.2316V22.2896C32.3972 22.2896 31.8083 22.123 31.4642 21.7894C31.1201 21.4562 30.9479 20.9034 30.9479 20.1321Z" fill="var(--fill-0, #E3E3E3)"/>
</svg>
