<svg preserveAspectRatio="none" width="100%" height="100%" overflow="visible" style="display: block;" viewBox="0 0 111.626 88.9966" fill="none" xmlns="http://www.w3.org/2000/svg">
<g id="Group">
<path id="Vector" d="M25.6568 88.9845H111.626L100.348 8.80255H15.1902L25.6568 88.9845Z" fill="var(--fill-0, #C0C0D1)"/>
<path id="Vector_2" d="M94.8249 21.5413H102.146L100.349 8.80255H96.6442L94.8249 21.5413Z" fill="var(--fill-0, #FFA182)"/>
<path id="Vector_3" d="M85.2239 88.9845H0L11.5188 8.80255H96.6441L85.2239 88.9845Z" fill="var(--fill-0, #DCDDE2)"/>
<path id="Vector_4" d="M94.825 21.5413L96.6444 8.80255H11.5191L9.68876 21.5413H94.825Z" fill="var(--fill-0, #FF6F3F)"/>
<path id="Vector_5" d="M26.3583 43.9723H6.48808L9.35956 23.4938H29.2298L26.3583 43.9723Z" fill="var(--fill-0, #EEEFF5)"/>
<path id="Vector_6" d="M48.103 43.9723H28.2328L31.1043 23.4938H50.9745L48.103 43.9723Z" fill="var(--fill-0, #EEEFF5)"/>
<path id="Vector_7" d="M69.8474 43.9723H49.9771L52.8486 23.4938H72.7188L69.8474 43.9723Z" fill="var(--fill-0, #EEEFF5)"/>
<path id="Vector_8" d="M23.1911 66.4562H3.30993L6.19238 45.9777H26.0626L23.1911 66.4562Z" fill="var(--fill-0, #EEEFF5)"/>
<path id="Vector_9" d="M44.9355 66.4562H25.0543L27.9367 45.9777H47.8069L44.9355 66.4562Z" fill="var(--fill-0, #EEEFF5)"/>
<path id="Vector_10" d="M66.6798 66.4562H46.7986L49.681 45.9777H69.5513L66.6798 66.4562Z" fill="var(--fill-0, #EEEFF5)"/>
<path id="Vector_11" d="M91.5698 43.9723H71.6886L74.571 23.4938H94.4413L91.5698 43.9723Z" fill="var(--fill-0, #EEEFF5)"/>
<path id="Vector_12" d="M88.3914 66.4562H68.5211L71.3926 45.9777H91.2629L88.3914 66.4562Z" fill="var(--fill-0, #EEEFF5)"/>
<path id="Vector_13" d="M20.0238 88.9966H0.153559L3.02505 68.5181H22.8953L20.0238 88.9966Z" fill="var(--fill-0, #EEEFF5)"/>
<path id="Vector_14" d="M41.7681 88.9966H21.8979L24.7694 68.5181H44.6396L41.7681 88.9966Z" fill="var(--fill-0, #EEEFF5)"/>
<path id="Vector_15" d="M63.5125 88.9966H43.6422L46.5137 68.5181H66.3839L63.5125 88.9966Z" fill="var(--fill-0, #EEEFF5)"/>
<path id="Vector_16" d="M85.2239 88.9966H65.3537L68.2252 68.5181H88.1064L85.2239 88.9966Z" fill="var(--fill-0, #EEEFF5)"/>
<path id="Vector_17" d="M22.6541 17.5843C20.9156 17.5843 19.2162 17.0687 17.7707 16.1026C16.3253 15.1365 15.1987 13.7633 14.5334 12.1568C13.8681 10.5502 13.694 8.78242 14.0332 7.0769C14.3723 5.37139 15.2095 3.80478 16.4388 2.57517C17.668 1.34556 19.2342 0.508191 20.9393 0.168943C22.6444 -0.170305 24.4117 0.00380951 26.0178 0.669268C27.6239 1.33473 28.9967 2.46164 29.9626 3.9075C30.9284 5.35337 31.4439 7.05324 31.4439 8.79217H28.7039C28.7039 7.5953 28.3491 6.42531 27.6844 5.43015C27.0196 4.435 26.0747 3.65937 24.9693 3.20134C23.8638 2.74332 22.6474 2.62348 21.4738 2.85698C20.3003 3.09048 19.2223 3.66682 18.3762 4.51314C17.5301 5.35945 16.9539 6.43772 16.7205 7.61159C16.4871 8.78546 16.6069 10.0022 17.0648 11.108C17.5227 12.2137 18.2981 13.1588 19.293 13.8238C20.2879 14.4887 21.4576 14.8436 22.6541 14.8436V17.5843Z" fill="var(--fill-0, #F9BB11)"/>
<path id="Vector_18" d="M43.0282 17.5843C41.2898 17.5843 39.5904 17.0687 38.1449 16.1026C36.6994 15.1365 35.5728 13.7633 34.9075 12.1568C34.2422 10.5502 34.0682 8.78242 34.4073 7.0769C34.7465 5.37139 35.5836 3.80478 36.8129 2.57517C38.0422 1.34556 39.6084 0.508191 41.3134 0.168943C43.0185 -0.170305 44.7858 0.00380951 46.3919 0.669268C47.9981 1.33473 49.3709 2.46164 50.3367 3.9075C51.3025 5.35337 51.818 7.05324 51.818 8.79217H49.0781C49.0781 7.5953 48.7233 6.42531 48.0585 5.43015C47.3937 4.435 46.4489 3.65937 45.3434 3.20134C44.2379 2.74332 43.0215 2.62348 41.848 2.85698C40.6744 3.09048 39.5964 3.66682 38.7503 4.51314C37.9043 5.35945 37.3281 6.43772 37.0946 7.61159C36.8612 8.78546 36.981 10.0022 37.4389 11.108C37.8968 12.2137 38.6722 13.1588 39.6671 13.8238C40.662 14.4887 41.8317 14.8436 43.0282 14.8436V17.5843Z" fill="var(--fill-0, #F9BB11)"/>
<path id="Vector_19" d="M63.4138 17.5843C61.6754 17.5843 59.9759 17.0687 58.5305 16.1026C57.085 15.1365 55.9584 13.7633 55.2931 12.1568C54.6278 10.5502 54.4537 8.78242 54.7929 7.0769C55.1321 5.37139 55.9692 3.80478 57.1985 2.57517C58.4278 1.34556 59.994 0.508191 61.699 0.168943C63.4041 -0.170305 65.1714 0.00380951 66.7775 0.669268C68.3837 1.33473 69.7565 2.46164 70.7223 3.9075C71.6881 5.35337 72.2036 7.05324 72.2036 8.79217H69.4637C69.4637 7.5953 69.1089 6.42531 68.4441 5.43015C67.7793 4.435 66.8345 3.65937 65.729 3.20134C64.6235 2.74332 63.4071 2.62348 62.2336 2.85698C61.06 3.09048 59.982 3.66682 59.1359 4.51314C58.2898 5.35945 57.7137 6.43772 57.4802 7.61159C57.2468 8.78546 57.3666 10.0022 57.8245 11.108C58.2824 12.2137 59.0578 13.1588 60.0527 13.8238C61.0476 14.4887 62.2173 14.8436 63.4138 14.8436V17.5843Z" fill="var(--fill-0, #F9BB11)"/>
<path id="Vector_20" d="M83.788 17.5843C82.0495 17.5843 80.3501 17.0687 78.9046 16.1026C77.4591 15.1365 76.3325 13.7633 75.6672 12.1568C75.0019 10.5502 74.8279 8.78242 75.167 7.0769C75.5062 5.37139 76.3433 3.80478 77.5726 2.57517C78.8019 1.34556 80.3681 0.508191 82.0732 0.168943C83.7782 -0.170305 85.5455 0.00380951 87.1517 0.669268C88.7578 1.33473 90.1306 2.46164 91.0964 3.9075C92.0623 5.35337 92.5778 7.05324 92.5778 8.79217H89.8378C89.8378 7.5953 89.483 6.42531 88.8182 5.43015C88.1535 4.435 87.2086 3.65937 86.1031 3.20134C84.9977 2.74332 83.7812 2.62348 82.6077 2.85698C81.4341 3.09048 80.3562 3.66682 79.5101 4.51314C78.664 5.35945 78.0878 6.43772 77.8544 7.61159C77.6209 8.78546 77.7407 10.0022 78.1986 11.108C78.6565 12.2137 79.4319 13.1588 80.4268 13.8238C81.4217 14.4887 82.5914 14.8436 83.788 14.8436V17.5843Z" fill="var(--fill-0, #F9BB11)"/>
<path id="Vector_21" d="M25.0777 25.8523L9.27316 40.0706L10.6511 41.6031L26.4556 27.3848L25.0777 25.8523Z" fill="var(--fill-0, #FF6F3F)"/>
<path id="Vector_22" d="M12.75 25.9589L11.1648 27.2755L22.9684 41.4943L24.5536 40.1777L12.75 25.9589Z" fill="var(--fill-0, #FF6F3F)"/>
<path id="Vector_23" d="M46.8224 25.8523L31.0179 40.0706L32.3958 41.6031L48.2004 27.3848L46.8224 25.8523Z" fill="var(--fill-0, #FF6F3F)"/>
<path id="Vector_24" d="M34.4943 25.9589L32.9091 27.2755L44.7128 41.4944L46.298 40.1778L34.4943 25.9589Z" fill="var(--fill-0, #FF6F3F)"/>
<path id="Vector_25" d="M68.5549 25.8515L52.7622 40.0706L54.1406 41.6024L69.9333 27.3832L68.5549 25.8515Z" fill="var(--fill-0, white)"/>
<path id="Vector_26" d="M56.2386 25.9604L54.6534 27.2771L66.4571 41.4959L68.0423 40.1793L56.2386 25.9604Z" fill="var(--fill-0, white)"/>
<path id="Vector_27" d="M90.2997 25.8514L74.5069 40.0706L75.8853 41.6024L91.6781 27.3832L90.2997 25.8514Z" fill="var(--fill-0, white)"/>
<path id="Vector_28" d="M77.9833 25.9604L76.3981 27.2771L88.2018 41.4959L89.787 40.1793L77.9833 25.9604Z" fill="var(--fill-0, white)"/>
<path id="Vector_29" d="M21.8661 48.3369L6.06216 62.5667L7.44066 64.0985L23.2446 49.8687L21.8661 48.3369Z" fill="var(--fill-0, #FF6F3F)"/>
<path id="Vector_30" d="M9.53847 48.4441L7.95339 49.7609L19.7681 63.9906L21.3532 62.6738L9.53847 48.4441Z" fill="var(--fill-0, #FF6F3F)"/>
<path id="Vector_31" d="M43.6108 48.3371L27.8065 62.5667L29.1849 64.0985L44.9892 49.8689L43.6108 48.3371Z" fill="var(--fill-0, white)"/>
<path id="Vector_32" d="M31.2828 48.4441L29.6977 49.7609L41.5125 63.9906L43.0975 62.6738L31.2828 48.4441Z" fill="var(--fill-0, white)"/>
<path id="Vector_33" d="M65.3551 48.3371L49.5508 62.5667L50.9292 64.0985L66.7335 49.8689L65.3551 48.3371Z" fill="var(--fill-0, #FF6F3F)"/>
<path id="Vector_34" d="M53.0271 48.4441L51.442 49.7609L63.2568 63.9906L64.8419 62.6738L53.0271 48.4441Z" fill="var(--fill-0, #FF6F3F)"/>
<path id="Vector_35" d="M87.0995 48.3371L71.2951 62.5667L72.6735 64.0985L88.4779 49.8689L87.0995 48.3371Z" fill="var(--fill-0, #FF6F3F)"/>
<path id="Vector_36" d="M74.772 48.4434L73.1864 49.7594L84.9902 63.989L86.5758 62.673L74.772 48.4434Z" fill="var(--fill-0, #FF6F3F)"/>
<path id="Vector_37" d="M18.8963 70.8308L3.09182 85.049L4.46975 86.5815L20.2742 72.3633L18.8963 70.8308Z" fill="var(--fill-0, white)"/>
<path id="Vector_38" d="M6.56839 70.9396L4.98381 72.257L16.7986 86.4756L18.3832 85.1582L6.56839 70.9396Z" fill="var(--fill-0, white)"/>
<path id="Vector_39" d="M40.6406 70.8308L24.8361 85.049L26.2141 86.5815L42.0186 72.3633L40.6406 70.8308Z" fill="var(--fill-0, white)"/>
<path id="Vector_40" d="M28.3129 70.9403L26.7278 72.257L38.5316 86.4756L40.1168 85.1589L28.3129 70.9403Z" fill="var(--fill-0, white)"/>
<path id="Vector_41" d="M62.3849 70.8323L46.5805 85.0506L47.9584 86.583L63.7629 72.3648L62.3849 70.8323Z" fill="var(--fill-0, #FF6F3F)"/>
<path id="Vector_42" d="M50.0573 70.9403L48.4721 72.257L60.276 86.4756L61.8611 85.1589L50.0573 70.9403Z" fill="var(--fill-0, #FF6F3F)"/>
<path id="Vector_43" d="M84.13 70.8308L68.3256 85.049L69.7035 86.5815L85.508 72.3633L84.13 70.8308Z" fill="var(--fill-0, #FF6F3F)"/>
<path id="Vector_44" d="M71.8016 70.9403L70.2164 72.257L82.0203 86.4756L83.6055 85.1589L71.8016 70.9403Z" fill="var(--fill-0, #FF6F3F)"/>
</g>
</svg>
