<svg width="160" height="160" viewBox="0 0 160 160" fill="none" xmlns="http://www.w3.org/2000/svg">
<g clip-path="url(#clip0_517_5294)">
<path d="M159.999 80C160.017 91.1445 157.696 102.169 153.186 112.359C153.04 112.688 152.893 113.015 152.743 113.341C152.669 113.504 152.593 113.666 152.518 113.829C152.442 113.991 152.366 114.155 152.288 114.316C152.189 114.526 152.089 114.733 151.987 114.941C151.861 115.202 151.734 115.461 151.602 115.721C151.586 115.757 151.568 115.793 151.548 115.828C151.439 116.048 151.329 116.267 151.215 116.487C151.191 116.535 151.167 116.583 151.141 116.628C151.012 116.884 150.878 117.139 150.742 117.393V117.395C150.599 117.664 150.455 117.933 150.31 118.201C149.951 118.863 149.582 119.519 149.203 120.17C149.089 120.363 148.977 120.557 148.862 120.748C148.756 120.928 148.65 121.105 148.542 121.283C148.469 121.407 148.395 121.528 148.319 121.65C148.199 121.847 148.078 122.045 147.954 122.242C147.952 122.244 147.952 122.244 147.952 122.246C147.679 122.685 147.4 123.122 147.118 123.555H147.116C146.987 123.757 146.855 123.956 146.723 124.156V124.158C146.327 124.756 145.922 125.349 145.509 125.935V125.937C145.507 125.937 145.506 125.938 145.505 125.939V125.941L145.501 125.945C145.174 126.414 144.84 126.879 144.5 127.34V127.342C144.282 127.637 144.063 127.932 143.841 128.223C143.66 128.463 143.476 128.702 143.291 128.94C143.253 128.992 143.213 129.041 143.171 129.093V129.095C143.121 129.161 143.071 129.225 143.018 129.291V129.293C142.23 130.3 141.418 131.288 140.582 132.255H140.58C140.536 132.309 140.49 132.361 140.445 132.413C140.401 132.465 140.353 132.517 140.307 132.571H140.305C140.235 132.652 140.163 132.734 140.092 132.816C140.022 132.898 139.948 132.98 139.874 133.061V133.063C135.518 137.979 130.574 142.341 125.154 146.051C124.432 146.548 123.701 147.031 122.96 147.501C122.777 147.619 122.593 147.735 122.408 147.85C122.352 147.888 122.296 147.922 122.24 147.956C122.143 148.018 122.043 148.08 121.943 148.142C121.845 148.202 121.746 148.263 121.646 148.323C121.249 148.567 120.848 148.806 120.447 149.041C120.348 149.101 120.246 149.159 120.144 149.219C120.044 149.277 119.943 149.335 119.841 149.393C119.84 149.395 119.838 149.396 119.836 149.398C119.834 149.399 119.831 149.4 119.829 149.401L119.825 149.403L119.821 149.407H119.819C119.316 149.696 118.812 149.981 118.301 150.256C117.388 150.755 116.465 151.236 115.533 151.699C115.301 151.814 115.068 151.928 114.835 152.042C114.641 152.136 114.446 152.229 114.252 152.321C114.198 152.347 114.147 152.373 114.093 152.397C113.931 152.473 113.77 152.549 113.608 152.622C113.432 152.706 113.255 152.786 113.079 152.866C112.882 152.956 112.687 153.043 112.489 153.131C111.747 153.462 110.997 153.782 110.245 154.089C107.559 155.189 104.813 156.139 102.022 156.934C101.892 156.972 101.76 157.01 101.629 157.045C100.434 157.381 99.2306 157.687 98.0186 157.965C95.9024 158.452 93.7669 158.852 91.6121 159.164C91.6081 159.164 91.6021 159.166 91.5981 159.166C91.3408 159.204 91.0816 159.24 90.8243 159.276C90.8023 159.28 90.7784 159.284 90.7544 159.286C90.7524 159.288 90.7505 159.288 90.7465 159.286C90.7465 159.286 90.7465 159.288 90.7445 159.286C90.4593 159.324 90.174 159.362 89.8868 159.398C89.8669 159.402 89.8469 159.404 89.827 159.406C89.5597 159.437 89.2904 159.469 89.0212 159.499C88.732 159.531 88.4428 159.561 88.1516 159.591C87.9302 159.613 87.7088 159.635 87.4874 159.655C87.4677 159.659 87.4476 159.661 87.4275 159.661C87.2261 159.679 87.0247 159.697 86.8232 159.713C86.8152 159.713 86.8052 159.715 86.7973 159.715C86.6217 159.731 86.4462 159.743 86.2707 159.757C84.2063 159.92 82.122 160.001 80.0178 160C77.734 160 75.4735 159.905 73.2363 159.715C73.2283 159.715 73.2204 159.713 73.2124 159.713C72.7357 159.673 72.2597 159.629 71.7843 159.581C71.6586 159.569 71.535 159.555 71.4093 159.543C71.3854 159.541 71.3615 159.539 71.3375 159.535C71.2996 159.531 71.2617 159.527 71.2218 159.523C71.2019 159.521 71.1799 159.519 71.16 159.515C70.9944 159.497 70.8289 159.479 70.6614 159.459C70.4759 159.437 70.2884 159.415 70.1029 159.392C69.9174 159.37 69.7299 159.346 69.5444 159.32C69.5045 159.316 69.4626 159.312 69.4227 159.304C69.2871 159.288 69.1515 159.27 69.0179 159.25C68.952 159.242 68.8882 159.232 68.8244 159.222C68.6947 159.204 68.5671 159.186 68.4374 159.166C68.4334 159.166 68.4275 159.164 68.4235 159.164C64.3505 158.576 60.3298 157.669 56.3983 156.453H56.3963C56.1829 156.387 55.9695 156.319 55.7561 156.251C55.6923 156.233 55.6284 156.213 55.5646 156.192C55.0101 156.014 54.459 155.83 53.9111 155.641C53.1552 155.382 52.4046 155.11 51.6593 154.827C51.4558 154.749 51.2544 154.671 51.051 154.594C50.6461 154.434 50.2432 154.274 49.8423 154.111C49.1581 153.831 48.4786 153.544 47.8038 153.247H47.8018V153.245C47.1716 152.968 46.5459 152.682 45.925 152.387C45.9066 152.382 45.8892 152.374 45.8731 152.363C45.8711 152.363 45.8711 152.361 45.8691 152.361C45.7315 152.297 45.5939 152.231 45.4562 152.166L45.4523 152.164C42.0311 150.523 38.7323 148.639 35.5812 146.526C34.57 145.849 33.576 145.15 32.5994 144.429C31.8115 143.848 31.035 143.253 30.2697 142.643C26.4579 139.613 22.9303 136.242 19.7306 132.571H19.7286V132.569C19.5032 132.311 19.2838 132.056 19.0604 131.797V131.795C19.0285 131.759 18.9986 131.723 18.9686 131.687C18.827 131.521 18.6894 131.358 18.5518 131.19V131.188C18.3643 130.967 18.1808 130.744 18.0013 130.522C17.9614 130.474 17.9235 130.428 17.8856 130.38H17.8836V130.378C17.736 130.199 17.5904 130.017 17.4468 129.835C17.373 129.746 17.3012 129.654 17.2294 129.562H17.2274V129.56C16.7926 129.011 16.3664 128.458 15.9489 127.898V127.896C15.8332 127.743 15.7195 127.589 15.6078 127.433H15.6058C15.0713 126.711 14.5507 125.98 14.0441 125.241V125.239C13.8526 124.962 13.6631 124.682 13.4757 124.401C13.2882 124.12 13.1027 123.838 12.9192 123.555H12.9172C12.7277 123.264 12.5402 122.971 12.3547 122.677C12.3447 122.661 12.3348 122.647 12.3268 122.633C12.1433 122.344 11.9625 122.053 11.7843 121.76C11.6407 121.526 11.4991 121.295 11.3614 121.061C11.2657 120.904 11.172 120.748 11.0802 120.589C11.0463 120.535 11.0164 120.481 10.9865 120.429C10.775 120.068 10.5676 119.707 10.3602 119.344C10.1188 118.917 9.87949 118.486 9.64613 118.055C9.55039 117.877 9.45465 117.698 9.36091 117.518C9.327 117.46 9.29709 117.403 9.26717 117.343C9.15547 117.131 9.04377 116.92 8.93407 116.706C8.82437 116.495 8.71468 116.281 8.60697 116.068C8.49927 115.854 8.39156 115.641 8.28585 115.425C8.20606 115.264 8.12628 115.1 8.04849 114.939C8.0404 114.925 8.03308 114.911 8.02656 114.897C7.99066 114.821 7.95276 114.747 7.91885 114.671C7.91089 114.66 7.90483 114.647 7.9009 114.633C7.81912 114.466 7.73934 114.3 7.66155 114.133C7.55784 113.917 7.45811 113.7 7.35838 113.482C7.28658 113.331 7.21877 113.177 7.14896 113.023C7.04923 112.808 6.9515 112.591 6.85576 112.371C6.75404 112.146 6.6563 111.918 6.55856 111.691C6.53264 111.633 6.50869 111.577 6.48476 111.519C6.43888 111.415 6.39501 111.312 6.35113 111.208C6.23345 110.933 6.11776 110.653 6.00408 110.376C5.87443 110.063 5.7481 109.749 5.62511 109.434C5.50743 109.141 5.39307 108.847 5.28204 108.553L5.24016 108.445V108.443C3.5071 103.887 2.19583 99.1817 1.32287 94.386V94.384C0.825107 91.646 0.470928 88.8838 0.26178 86.1087C0.249813 85.9571 0.239829 85.8055 0.229866 85.6539C0.0982262 83.7766 0.0337355 81.892 0.0363949 80C0.0363949 79.1601 0.0496913 78.3242 0.0762853 77.4923C0.593428 60.0995 6.79202 43.355 17.7241 29.8195C18.2047 29.2229 18.6941 28.6338 19.192 28.0519C33.8599 10.8828 55.6683 0 80.0178 0C108.486 0 133.482 14.8768 147.653 37.2828C148.391 38.4439 149.097 39.6263 149.771 40.8299C156.498 52.787 160.021 66.2799 159.999 80Z" fill="#F2F2F2"/>
<path d="M4.38653 86.4946C4.57248 83.8721 3.76341 81.276 2.12065 79.2237C1.95772 79.0205 2.28158 78.7783 2.44431 78.9812C4.14982 81.1201 4.98629 83.8235 4.78677 86.5521C4.76758 86.8121 4.36743 86.7532 4.38653 86.4946Z" fill="white"/>
<path d="M13.109 51.6695C13.1037 51.8322 13.0984 51.9949 13.0958 52.1598C13.0359 54.348 13.1537 56.5375 13.4483 58.7067C13.4684 58.8748 13.4913 59.0448 13.5162 59.2119C14.2815 64.4304 16.0088 69.4613 18.6102 74.0491C19.647 75.8737 20.8211 77.6168 22.1224 79.2632C23.9196 81.5369 26.0491 83.8592 26.9634 86.5157C27.062 86.7918 27.1433 87.0737 27.2069 87.3599L18.6492 99.6308C18.6158 99.6489 18.585 99.6691 18.5515 99.6874L18.2322 100.193C18.1592 100.113 18.0851 100.028 18.0121 99.9477C17.9695 99.9014 17.9289 99.8523 17.8863 99.8059C17.8585 99.7741 17.8309 99.7422 17.804 99.7151C17.7947 99.7046 17.7855 99.6939 17.779 99.6853C17.7521 99.6582 17.73 99.6302 17.706 99.6051C17.2908 99.1324 16.8783 98.6559 16.4684 98.1757C16.4656 98.1737 16.4656 98.1737 16.4647 98.169C13.3507 94.502 10.5153 90.5428 8.37095 86.2789C8.30648 86.1506 8.23911 86.0205 8.17854 85.8866C7.22261 83.9593 6.42576 81.957 5.79595 79.8999C5.45472 78.7723 5.17076 77.6282 4.94518 76.472C4.36807 73.4832 4.26454 70.4223 4.63839 67.4014C5.38455 61.3793 8.04792 55.663 12.7472 51.9497C12.8675 51.8547 12.9859 51.7624 13.109 51.6695Z" fill="#E6E6E6"/>
<path d="M13.2455 51.8057C10.2274 58.6886 9.38816 66.5805 11.0191 73.9286C11.3717 75.5172 11.8676 77.0981 12.6995 78.5058C13.521 79.8717 14.6931 80.9926 16.0941 81.7522C17.3862 82.4866 18.7929 83.0882 19.884 84.124C21.0341 85.2159 21.5536 86.7135 21.5224 88.2824C21.4843 90.202 20.7589 91.9934 19.9886 93.7206C19.1334 95.6384 18.2147 97.6167 18.2865 99.7654C18.2952 100.026 17.8908 100.024 17.8821 99.764C17.7572 96.0258 20.4382 93.0036 21.0146 89.4116C21.2836 87.7355 21.0492 85.9681 19.8632 84.6789C18.8261 83.5516 17.376 82.93 16.0613 82.1976C14.6808 81.4287 13.5035 80.4748 12.6239 79.1471C11.7241 77.7888 11.1654 76.224 10.7737 74.6514C9.91215 71.0786 9.61757 67.3925 9.90078 63.7281C10.2008 59.5442 11.2142 55.4425 12.897 51.6004C13.0013 51.3627 13.3491 51.5695 13.2455 51.8057Z" fill="white"/>
<path d="M10.3644 71.5681C9.08247 71.6676 7.80692 71.3081 6.76554 70.5537C5.72416 69.7994 4.98477 68.6994 4.67941 67.4501C4.61849 67.1971 5.00867 67.0905 5.06967 67.3438C5.35188 68.5077 6.04073 69.5323 7.01189 70.2328C7.98306 70.9332 9.17257 71.2634 10.3657 71.1637C10.625 71.1423 10.6222 71.5469 10.3644 71.5681Z" fill="white"/>
<path d="M15.392 81.466C17.119 79.4842 18.0357 76.924 17.9593 74.2961C17.9516 74.0358 18.3559 74.0374 18.3637 74.2974C18.438 77.0323 17.4786 79.6945 15.6769 81.753C15.5051 81.949 15.221 81.661 15.392 81.466Z" fill="white"/>
<path d="M10.6776 59.7919C11.1817 59.8568 11.6939 59.7955 12.1684 59.6134C12.6428 59.4313 13.0647 59.1342 13.396 58.7488C13.5653 58.5506 13.8491 58.8389 13.6809 59.0357C13.3129 59.4599 12.8467 59.7874 12.3229 59.9897C11.7991 60.1921 11.2338 60.263 10.6763 60.1964C10.6232 60.1945 10.5729 60.1725 10.5354 60.1348C10.498 60.0971 10.4763 60.0466 10.4748 59.9935C10.4752 59.94 10.4968 59.8888 10.5348 59.851C10.5728 59.8133 10.6241 59.792 10.6776 59.7919Z" fill="white"/>
<path d="M91.2877 52.4878C92.4765 45.9113 90.5008 38.4488 85.1076 34.5037C85.4544 41.7632 83.2227 48.9113 78.8076 54.6835C77.0968 56.9034 74.9629 59.1943 75.0459 61.996C75.0976 63.7393 76.0498 65.358 77.2992 66.5744C78.5487 67.7908 80.0842 68.6641 81.6014 69.5238L81.8389 69.8886C86.2421 64.862 90.0989 59.0644 91.2877 52.4878Z" fill="#E6E6E6"/>
<path d="M85.0102 34.6047C87.2958 39.642 87.9365 45.2716 86.8412 50.6938C86.6262 51.8653 86.2278 52.9955 85.6609 54.0429C85.0756 55.0454 84.2327 55.8728 83.2197 56.4392C82.2857 56.9863 81.267 57.4377 80.4823 58.2024C80.0864 58.5997 79.779 59.0763 79.5801 59.6009C79.3813 60.1254 79.2956 60.6861 79.3286 61.2461C79.3746 62.6436 79.9198 63.9413 80.4971 65.1917C81.1381 66.5801 81.8258 68.0121 81.7939 69.5774C81.7901 69.7671 82.0845 69.762 82.0884 69.5726C82.1439 66.8492 80.1629 64.6738 79.7091 62.0635C79.4973 60.8455 79.6513 59.5563 80.5027 58.6062C81.2473 57.7755 82.2973 57.309 83.2478 56.7633C84.2441 56.2252 85.0936 55.4513 85.722 54.5092C86.3405 53.4941 86.7817 52.3811 87.0267 51.2178C87.6203 48.6079 87.7999 45.9208 87.5589 43.2551C87.3007 40.2112 86.5239 37.2339 85.262 34.452C85.1838 34.2798 84.9325 34.4337 85.0102 34.6047Z" fill="white"/>
<path d="M87.295 48.9686C88.2295 49.0289 89.1549 48.755 89.9061 48.1958C90.6573 47.6366 91.1853 46.8286 91.3958 45.9159C91.4378 45.7311 91.1527 45.6572 91.1107 45.8423C90.9162 46.6925 90.4242 47.4451 89.7237 47.9644C89.0231 48.4837 88.16 48.7354 87.2902 48.6741C87.1011 48.661 87.107 48.9556 87.295 48.9686Z" fill="white"/>
<path d="M83.7299 56.2241C82.4535 54.7973 81.7616 52.9416 81.7923 51.0272C81.7955 50.8376 81.5011 50.8426 81.4979 51.032C81.4697 53.0243 82.1935 54.9539 83.5251 56.4358C83.6521 56.5769 83.8562 56.3645 83.7299 56.2241Z" fill="white"/>
<path d="M86.9568 40.396C86.5903 40.4481 86.2167 40.4082 85.8695 40.2801C85.5223 40.1521 85.2123 39.9397 84.9674 39.6622C84.8422 39.5195 84.6382 39.7321 84.7625 39.8738C85.0346 40.1792 85.3772 40.4133 85.7605 40.5557C86.1439 40.698 86.5562 40.7443 86.9616 40.6905C87.0002 40.6887 87.0367 40.6722 87.0636 40.6444C87.0905 40.6166 87.1058 40.5796 87.1064 40.5409C87.1056 40.5019 87.0894 40.4648 87.0614 40.4377C87.0334 40.4106 86.9958 40.3956 86.9568 40.396Z" fill="white"/>
<path d="M63.1783 40.0659C63.2539 40.1572 63.3295 40.2486 63.4045 40.3423C64.4148 41.5754 65.3232 42.8885 66.1209 44.2688C66.1843 44.3745 66.2469 44.4826 66.3071 44.59C68.1934 47.9358 69.4423 51.6028 69.9902 55.4046C70.2069 56.9177 70.3082 58.445 70.2931 59.9734C70.2723 62.0842 70.0818 64.3711 70.7399 66.3085C70.8063 66.5114 70.8852 66.71 70.9761 66.9031L81.3747 70.1502C81.402 70.1457 81.4287 70.1436 81.4562 70.1392L81.8654 70.2878C81.8717 70.209 81.8765 70.1272 81.8828 70.0484C81.8866 70.0027 81.8881 69.9563 81.892 69.9107C81.8938 69.88 81.8955 69.8492 81.8989 69.8217C81.8995 69.8114 81.9001 69.8012 81.9 69.7933C81.9034 69.7658 81.9036 69.7398 81.9063 69.7146C81.9345 69.2572 81.9595 68.7989 81.9814 68.3395C81.9821 68.3372 81.9821 68.3371 81.9805 68.334C82.1383 64.8336 82.0052 61.2893 81.3385 57.8779C81.3184 57.7752 81.2992 57.6703 81.2744 57.5661C80.9653 56.0301 80.5313 54.5219 79.9766 53.0565C79.6703 52.2551 79.3236 51.4698 78.9379 50.7034C77.9375 48.7253 76.6322 46.9168 75.07 45.3444C71.9551 42.2102 67.8728 40.1073 63.5115 40.0658C63.4 40.0648 63.2906 40.0645 63.1783 40.0659Z" fill="#E6E6E6"/>
<path d="M63.1611 40.2052C68.0181 42.8508 71.9182 46.9598 74.3075 51.9488C74.841 53.0136 75.2033 54.1559 75.3811 55.3336C75.5172 56.4865 75.3422 57.6547 74.8742 58.717C74.4578 59.7163 73.9162 60.6902 73.7499 61.7733C73.673 62.329 73.7144 62.8947 73.8714 63.4332C74.0284 63.9718 74.2974 64.4711 74.6609 64.8983C75.5388 65.9865 76.7552 66.6942 77.9688 67.345C79.3163 68.0676 80.7274 68.7967 81.6442 70.0658C81.7552 70.2196 81.9873 70.0382 81.8764 69.8847C80.2814 67.6767 77.3902 67.1327 75.4567 65.3219C74.5545 64.4769 73.9014 63.3548 74.0093 62.0835C74.1037 60.9718 74.6614 59.967 75.0918 58.9589C75.5634 57.9293 75.7759 56.7998 75.7105 55.6691C75.5933 54.4862 75.2756 53.3318 74.7711 52.2555C73.674 49.8141 72.2 47.5605 70.403 45.5772C68.3646 43.3022 65.9522 41.3928 63.2702 39.9316C63.1041 39.8412 62.9962 40.1154 63.1611 40.2052Z" fill="white"/>
<path d="M73.6314 50.297C74.4139 49.7824 74.9879 49.0064 75.2511 48.1075C75.5143 47.2086 75.4495 46.2455 75.0682 45.39C74.9905 45.2172 74.7183 45.3299 74.7962 45.5029C75.1527 46.2989 75.213 47.1961 74.9662 48.0326C74.7194 48.8692 74.1817 49.5899 73.4503 50.0647C73.2915 50.1681 73.4735 50.3998 73.6314 50.297Z" fill="white"/>
<path d="M75.1501 58.2381C73.2721 57.8675 71.6028 56.8025 70.4749 55.2555C70.3633 55.1022 70.1312 55.2835 70.2427 55.4367C71.4194 57.0443 73.1589 58.1491 75.114 58.5305C75.3004 58.5667 75.3355 58.2742 75.1501 58.2381Z" fill="white"/>
<path d="M68.201 43.657C67.9398 43.9192 67.6175 44.1124 67.2631 44.2192C66.9088 44.3261 66.5334 44.3432 66.1708 44.2691C65.985 44.2305 65.9501 44.5231 66.1347 44.5614C66.5357 44.6414 66.9502 44.622 67.342 44.5048C67.7337 44.3877 68.0908 44.1763 68.3821 43.8892C68.4118 43.8645 68.431 43.8293 68.4358 43.7909C68.4405 43.7526 68.4304 43.7138 68.4076 43.6825C68.3835 43.6519 68.3483 43.632 68.3096 43.6273C68.2709 43.6225 68.2319 43.6332 68.201 43.657Z" fill="white"/>
<path d="M10.0586 75.415C11.4982 75.415 12.8788 75.987 13.8968 77.0052C14.9148 78.0234 15.4867 79.4044 15.4867 80.8444C15.4865 82.1038 15.0486 83.3241 14.248 84.2962C13.4474 85.2683 12.3338 85.9318 11.098 86.1732V95.0531H7.63324V75.415H10.0586Z" fill="#3F3D56"/>
<path d="M143.02 127.433V129.292C142.232 130.3 141.42 131.287 140.585 132.255C140.495 132.36 140.403 132.464 140.309 132.57C140.168 132.735 140.022 132.899 139.876 133.063V127.433H143.02Z" fill="#CACACA"/>
<path d="M133.796 123.554C133.101 123.555 132.435 123.832 131.943 124.323C131.452 124.815 131.176 125.481 131.175 126.176V129.948C131.176 130.643 131.452 131.31 131.943 131.801C132.435 132.293 133.101 132.569 133.796 132.57H140.308C140.402 132.464 140.493 132.36 140.583 132.255C141.419 131.287 142.231 130.3 143.019 129.292C143.07 129.226 143.122 129.16 143.172 129.095C143.623 128.518 144.066 127.931 144.501 127.341C144.84 126.878 145.177 126.411 145.506 125.94C145.508 125.938 145.51 125.938 145.51 125.936C146.06 125.154 146.597 124.36 147.119 123.554H133.796Z" fill="#3F3D56"/>
<path d="M150.563 91.2631C150.163 91.1248 149.742 91.0547 149.319 91.0556H148.248C147.858 91.0559 147.47 91.1144 147.097 91.2292C146.31 91.4764 145.623 91.9679 145.135 92.6323C144.647 93.2967 144.383 94.0994 144.382 94.9239V126.395C144.382 126.513 144.388 126.629 144.398 126.742C144.416 126.944 144.45 127.145 144.5 127.341C144.839 126.878 145.176 126.411 145.505 125.94C145.507 125.938 145.509 125.938 145.509 125.936C146.06 125.154 146.596 124.36 147.119 123.554C147.4 123.121 147.679 122.685 147.953 122.246C149.927 119.077 151.676 115.773 153.186 112.358V94.9239C153.185 94.1163 152.932 93.3293 152.462 92.6728C151.991 92.0164 151.328 91.5235 150.563 91.2631Z" fill="#3F3D56"/>
<path d="M18.554 127.433V131.189C17.6564 130.116 16.7888 129.019 15.9511 127.898C15.8354 127.744 15.7217 127.588 15.608 127.433H18.554Z" fill="#CACACA"/>
<path d="M24.633 123.554H12.9191C13.2881 124.123 13.6637 124.685 14.046 125.24C14.5526 125.98 15.0732 126.711 15.6077 127.433C15.7214 127.588 15.8351 127.744 15.9508 127.898C16.7905 129.019 17.6581 130.116 18.5537 131.189C18.7212 131.393 18.8907 131.594 19.0623 131.796C19.2817 132.055 19.5044 132.313 19.7305 132.57H24.633C25.3277 132.569 25.9936 132.292 26.4846 131.801C26.9756 131.309 27.2515 130.643 27.2519 129.948V126.176C27.2515 125.481 26.9756 124.815 26.4846 124.323C25.9936 123.832 25.3277 123.555 24.633 123.554Z" fill="#3F3D56"/>
<path d="M11.9659 91.4925C11.4136 91.2061 10.8008 91.0563 10.1788 91.0556H9.10968C8.60381 91.0549 8.10281 91.1546 7.63571 91.3489C6.92804 91.6413 6.32294 92.137 5.89692 92.7733C5.47089 93.4097 5.24307 94.1581 5.24225 94.9239V108.444C7.25615 113.74 9.82975 118.805 12.9193 123.554C13.2883 124.123 13.6639 124.685 14.0462 125.24V94.9239C14.0457 94.2165 13.8515 93.5227 13.4848 92.9178C13.1181 92.3129 12.5928 91.82 11.9659 91.4925Z" fill="#3F3D56"/>
<path d="M55.5392 149.923L59.0528 149.117L57.6156 135.177L52.4297 136.367L55.5392 149.923Z" fill="#FFB6B6"/>
<path d="M58.7345 137.829C58.6625 137.583 58.6138 137.331 58.5889 137.077C58.5597 136.776 58.5009 136.478 58.4134 136.189C58.3135 135.925 58.19 135.672 58.0444 135.431C57.9746 135.303 57.9007 135.175 57.8349 135.046C57.7687 134.916 57.7114 134.782 57.6634 134.645C55.607 128.57 52.7369 120.314 50.7463 115.483C49.5755 112.64 42.3752 111.694 35.5817 111.453C34.754 111.423 33.9323 111.403 33.1285 111.393C32.8512 111.389 32.576 111.385 32.3027 111.383C31.6046 111.379 30.9245 111.379 30.2703 111.387C30.1845 111.387 30.0987 111.387 30.013 111.389C29.5363 111.393 29.0742 111.399 28.6268 111.409C25.5512 111.469 23.2913 111.608 22.8884 111.634L19.3002 109.378L18.6002 108.937L18.5264 109.378L17.9619 112.741L16.9985 118.481L19.4139 119.159L20.9816 119.598L30.2703 122.204L32.2449 122.758L32.2568 122.762L35.5817 122.756L44.6729 122.74L45.1117 123.903C44.9541 124.148 44.8505 124.424 44.8076 124.712C44.7647 125 44.7836 125.293 44.8631 125.573C44.9425 125.854 45.0806 126.113 45.2683 126.336C45.4559 126.559 45.6888 126.739 45.9514 126.864L46.2925 127.026L50.4471 138.022C50.4599 139.017 50.7704 139.985 51.3387 140.801C51.4085 140.903 51.4843 141.003 51.5641 141.101L51.6558 141.21L53.2535 144.336L54.2049 144.117L58.2538 143.189L58.2737 143.149C58.2757 143.143 58.3276 143.034 58.4034 142.842V142.836C58.7205 142.044 59.4226 139.88 58.7345 137.829Z" fill="#2F2E41"/>
<path d="M68.6058 150.85C68.4545 150.18 68.1722 149.546 67.7752 148.986C67.3781 148.425 66.8741 147.949 66.2921 147.584C65.7102 147.219 65.0619 146.973 64.3844 146.86C63.707 146.746 63.0139 146.768 62.3449 146.924L59.5386 145.657L58.7527 146.21L55.4936 148.496L55.2244 148.558L54.3508 148.757L55.5575 154.018L68.6457 151.016L68.6058 150.85Z" fill="#2F2E41"/>
<path d="M51.2449 142.738L50.0581 152.362L50.0182 152.678L49.8427 154.112C49.1586 153.833 48.4764 153.543 47.8023 153.246C47.172 152.969 46.5464 152.683 45.9254 152.388V142.74L51.2449 142.738Z" fill="#FFB6B6"/>
<path d="M25.492 76.5773C29.4656 76.5773 32.6869 73.3553 32.6869 69.3807C32.6869 65.4061 29.4656 62.184 25.492 62.184C21.5183 62.184 18.297 65.4061 18.297 69.3807C18.297 73.3553 21.5183 76.5773 25.492 76.5773Z" fill="#FFB6B6"/>
<path d="M52.0091 146.411C51.8097 146.138 51.6023 145.853 51.5903 145.579C51.5444 144.616 51.4965 143.662 51.4467 142.728C51.4108 142.076 51.3749 141.432 51.339 140.801C51.335 140.721 51.329 140.642 51.325 140.564C51.2632 139.52 51.5723 138.419 51.8695 137.352C51.9673 137.003 52.065 136.65 52.1527 136.297C52.3722 135.51 52.4644 134.693 52.426 133.877C51.9154 127.415 49.6336 121.338 48.6104 120.314C47.0547 118.758 40.0199 115.163 35.582 112.977C34.7942 112.588 34.0881 112.245 33.5097 111.965C32.9971 111.716 32.5842 111.518 32.303 111.383C32.0876 111.281 31.948 111.215 31.9001 111.191L31.8762 111.179L30.2705 111.359L30.0133 111.389L28.5971 111.548L19.3843 112.582L17.9622 112.741L15.9497 112.969L14.1327 113.172L14.0648 113.178L14.0529 113.246C14.0529 113.248 14.0489 113.262 14.0449 113.288C13.7324 115.26 13.7324 117.269 14.0449 119.241C14.2802 120.58 14.725 121.94 15.5149 123.086C15.6226 123.241 15.7343 123.391 15.8539 123.534C15.858 123.542 15.8634 123.549 15.8699 123.554C15.8958 123.586 15.9218 123.618 15.9497 123.65V123.652C16.8531 124.703 18.0658 125.441 19.4142 125.761C19.6137 125.815 19.8171 125.859 20.0265 125.895C22.2584 126.29 24.7796 126.653 27.2508 126.972C28.274 127.103 29.2892 127.227 30.2705 127.343C32.2352 127.574 34.0702 127.77 35.582 127.925C37.7002 128.141 39.1882 128.275 39.5193 128.302L43.2192 145.567C42.9288 146.059 42.813 146.633 42.8904 147.199C42.9679 147.764 43.2342 148.287 43.646 148.682L43.9492 148.975L44.3002 150.619L45.457 152.167L45.6026 152.362H50.7067L50.7346 152.328C50.7526 152.304 52.5477 149.998 52.426 147.251C52.414 146.968 52.2166 146.698 52.0091 146.411Z" fill="#2F2E41"/>
<path d="M51.8701 88.5489C51.4836 88.4432 51.0786 88.4236 50.6837 88.4914C50.2888 88.5592 49.9135 88.7128 49.5843 88.9413C49.2552 89.1699 48.9801 89.4678 48.7785 89.8142C48.577 90.1606 48.4538 90.5469 48.4176 90.9461L42.4395 92.815L42.6888 96.7257L51.0941 93.9679C51.7685 93.9842 52.4255 93.7525 52.9405 93.3166C53.4556 92.8808 53.7929 92.2711 53.8885 91.6032C53.9842 90.9352 53.8315 90.2553 53.4595 89.6924C53.0875 89.1295 52.522 88.7226 51.8701 88.5489Z" fill="#FFB6B6"/>
<path d="M47.9699 95.0204L43.502 96.7119L43.3877 96.9335C43.2521 97.1967 43.066 97.4306 42.84 97.6219C42.614 97.8131 42.3525 97.9579 42.0706 98.0481C41.7886 98.1383 41.4917 98.172 41.1967 98.1474C40.9017 98.1228 40.6144 98.0403 40.3513 97.9046L30.3087 101.706C30.3087 101.706 25.8238 97.2174 22.6308 93.2112L23.719 86.5161C23.9711 84.9627 24.5068 83.469 25.2994 82.1095C31.8478 83.5458 35.6067 92.702 35.6067 92.702L47.4085 90.4496L47.9699 95.0204Z" fill="#C9EFFF"/>
<path d="M22.6332 75.8071C20.7654 76.3842 18.7063 75.617 17.2487 74.1616C15.7911 72.7061 14.8793 70.6438 14.3539 68.5136C13.9691 66.9535 13.7867 65.2217 14.3939 63.757C15.0011 62.2924 16.6352 61.3042 17.896 62.0441C17.1182 61.0074 17.5068 59.2928 18.4151 58.406C19.3235 57.5192 20.5708 57.2649 21.7587 57.1259C23.4827 56.9242 25.2636 56.9016 26.9041 57.5406C28.5447 58.1796 30.0353 59.5766 30.5487 61.4703C31.0731 61.7496 31.6637 61.8221 32.228 61.6763C32.7922 61.5306 33.2983 61.1749 33.6669 60.6649C33.7619 61.2506 33.6856 61.8558 33.4497 62.387C33.2138 62.9181 32.8315 63.3454 32.3619 63.6029L34.8756 62.6706C35.3078 63.7174 34.5504 65.013 33.5817 65.3483C32.613 65.6835 31.5674 65.3171 30.6482 64.8328C29.729 64.3485 28.8382 63.7361 27.8397 63.5473C26.8413 63.3584 25.6685 63.7254 25.2066 64.7556C24.9647 65.2952 24.9521 65.9271 24.8117 66.5119C24.6712 67.0966 24.3155 67.7028 23.7871 67.7507C23.4532 67.7809 23.1264 67.5775 22.7935 67.6191C22.5892 67.6651 22.401 67.7783 22.2521 67.9448C22.1032 68.1112 21.9999 68.3238 21.9549 68.5564C21.8721 69.0232 21.871 69.5041 21.952 69.9713L22.5905 75.5549L22.6332 75.8071Z" fill="#2F2E41"/>
<path d="M33.5113 111.965L33.1304 111.393L30.35 107.221L30.2941 107.139L31.1538 102.679L31.4211 101.286L32.0055 98.2556L31.8359 91.319L31.7143 86.4113L31.6963 85.6412L31.08 83.7619C30.7878 82.8831 30.3184 82.0735 29.7009 81.3835C29.0834 80.6934 28.3308 80.1374 27.4898 79.7499L23.3411 77.8507C22.8529 77.6283 22.2964 77.6091 21.794 77.7972C21.2916 77.9853 20.8845 78.3654 20.6622 78.8537C20.6436 78.8945 20.6264 78.9359 20.6106 78.9778C20.0422 79.0556 17.5749 79.4706 15.4826 81.0945C14.0169 82.21 12.9936 83.8088 12.5945 85.6073C12.5905 85.6212 12.5885 85.6352 12.5845 85.6492C12.3073 86.8881 12.0999 88.8432 11.9662 91.4925C11.8765 93.2442 11.82 95.2964 11.7967 97.6492C11.7595 101.571 11.98 105.491 12.4569 109.384C12.5028 109.755 12.5506 110.124 12.6005 110.495C12.6424 110.806 12.9416 111.104 13.2308 111.389C13.4961 111.65 13.7693 111.921 13.8072 112.167C13.8411 112.382 13.7035 112.608 13.5399 112.843C13.52 112.873 13.498 112.903 13.4781 112.933C13.2747 113.222 13.0652 113.523 13.1191 113.841C13.2447 114.555 13.3185 115.281 13.3883 115.983C13.4663 116.95 13.6062 117.911 13.8072 118.86C13.877 119.151 13.9568 119.445 14.0465 119.738C14.256 120.426 14.5093 121.112 14.7566 121.783C14.97 122.365 15.1914 122.964 15.3789 123.554C15.4148 123.664 15.4487 123.772 15.4806 123.88L15.4966 123.935L15.5544 123.945H15.5584C15.637 123.805 15.7306 123.674 15.8377 123.554C15.8425 123.547 15.8486 123.54 15.8556 123.534C15.8835 123.501 15.9154 123.465 15.9513 123.427C16.3882 122.95 17.3376 122.094 19.4159 120.652C19.8806 120.33 20.4012 119.981 20.9836 119.598C23.1197 118.2 26.1036 116.378 30.2722 114.026C31.3173 113.436 32.4389 112.811 33.637 112.153L33.5113 111.965Z" fill="#427A92"/>
<path d="M55.8827 155.852C55.3982 155.365 54.8222 154.979 54.1878 154.717C53.5535 154.454 52.8734 154.32 52.1868 154.321L50.0187 152.678L49.7335 152.46L47.8028 153.246C48.477 153.543 49.1591 153.833 49.8432 154.112C51.9834 154.986 54.1687 155.766 56.3993 156.454C56.2425 156.241 56.0699 156.039 55.8827 155.852Z" fill="#2F2E41"/>
<path d="M104.038 149.787L101.323 148.488L105.053 137.136L109.06 139.053L104.038 149.787Z" fill="#FFB6B6"/>
<path d="M122.241 147.957C121.451 148.45 120.652 148.929 119.842 149.394V149.4L119.83 149.402L119.826 149.404L119.519 149.48L119.078 148.314L118.061 145.627L115.288 138.306L119.598 137.242L119.842 138.23L121.665 145.625L122.187 147.74L122.241 147.957Z" fill="#FFB6B6"/>
<path d="M111.248 100.444C111.636 101.073 112.254 101.526 112.97 101.706C113.687 101.885 114.445 101.778 115.083 101.406C115.212 101.328 115.333 101.24 115.447 101.142L124.032 106.07L123.659 101.012L115.564 97.1078C115.123 96.6652 114.549 96.3814 113.93 96.3007C113.31 96.2201 112.682 96.3472 112.143 96.6621C111.526 97.0327 111.081 97.6334 110.907 98.3319C110.733 99.0304 110.843 99.7696 111.213 100.387C111.225 100.406 111.236 100.425 111.248 100.444Z" fill="#FFB6B6"/>
<path d="M120.342 104.214L121.859 105.139L128.674 109.296C129.122 109.576 129.62 109.765 130.14 109.853C130.661 109.94 131.193 109.924 131.707 109.806C132.222 109.687 132.708 109.469 133.137 109.163C133.567 108.856 133.932 108.468 134.212 108.021L134.215 108.017C134.719 107.186 134.898 106.197 134.716 105.241L131.687 90.1042C131.575 89.51 131.336 88.947 130.986 88.4536C130.637 87.9602 130.185 87.5481 129.662 87.2455C129.138 86.9429 128.556 86.7569 127.954 86.7002C127.352 86.6434 126.745 86.7174 126.174 86.9169C125.215 87.2541 124.42 87.9441 123.952 88.8466C123.483 89.749 123.376 90.7962 123.652 91.775L126.819 102.517L121.964 100.253L120.342 104.214Z" fill="#427A92"/>
<path d="M148.286 119.139C148.284 119.133 148.28 119.111 148.274 119.078L148.268 119.056C148.254 118.984 148.238 118.904 148.22 118.816C147.813 116.795 147.29 114.799 146.654 112.837C146.278 111.636 145.778 110.477 145.165 109.378C145.145 109.342 145.123 109.306 145.101 109.27L145.027 109.15L144.407 109.378L144.383 109.386L134.952 112.843L132.226 113.843L132.14 113.875L131.675 115.77L125.155 114.926L119.842 114.238L118.316 114.04C117.654 113.954 116.982 114 116.339 114.176C115.696 114.352 115.094 114.655 114.568 115.066C114.02 115.491 113.562 116.021 113.22 116.625C112.879 117.229 112.661 117.896 112.58 118.585C112.56 118.736 112.548 118.89 112.542 119.042L112.081 136.233V136.255L112.294 136.682L116.752 145.627H119.842L121.665 145.625H123.147L120.065 137.827L120.135 137.721C120.425 137.276 120.608 136.771 120.669 136.243C120.73 135.716 120.668 135.182 120.488 134.683L120.835 133.677C121.555 131.6 121.214 130.603 120.783 129.342C120.396 128.317 120.169 127.238 120.109 126.144L120.037 124.721C121.846 125.039 123.532 125.392 125.155 125.747C125.698 125.865 126.235 125.984 126.767 126.104C128.281 126.441 129.743 126.766 131.175 127.038C134.075 127.59 136.853 127.927 139.707 127.718C139.763 127.714 139.819 127.71 139.875 127.704C140.569 127.648 141.267 127.558 141.973 127.433C142.37 127.361 142.769 127.279 143.172 127.183C143.284 127.155 143.397 127.127 143.509 127.1C143.819 127.018 144.118 126.898 144.399 126.742C144.798 126.519 145.169 126.25 145.506 125.94C145.508 125.938 145.51 125.938 145.51 125.936C146.06 125.154 146.597 124.36 147.119 123.554C147.4 123.121 147.68 122.685 147.953 122.246C148.352 121.15 148.503 120.045 148.286 119.139Z" fill="#2F2E41"/>
<path d="M148.353 115.909C148.323 115.782 148.285 115.652 148.245 115.526C147.928 114.575 147.559 113.641 147.14 112.729C146.669 111.692 146.105 110.581 145.433 109.378C145.108 108.795 144.758 108.189 144.384 107.56C144.196 107.245 144.001 106.924 143.799 106.597C143.791 106.582 143.783 106.567 143.773 106.553L143.715 106.457L134.385 107.706L130.91 108.171L130.703 109.903L130.653 110.331C130.651 110.331 130.651 110.331 130.653 110.333L130.513 111.503V111.505L130.328 113.049L130.312 113.047L125.156 112.378L119.843 111.69L116.988 111.321C116.327 111.235 115.655 111.281 115.012 111.457C114.368 111.633 113.766 111.935 113.241 112.346C112.692 112.772 112.234 113.302 111.893 113.906C111.551 114.51 111.334 115.176 111.252 115.866C111.234 116.005 111.222 116.149 111.216 116.291L108.524 122.673C106.912 126.489 105.886 130.528 105.48 134.651L103.505 140.965L103.787 140.991L107.971 141.38L109.076 141.484L111.509 137.93C111.787 137.525 112.05 137.108 112.295 136.682C112.699 135.984 113.058 135.262 113.37 134.519L118.634 121.99C119.041 122.06 119.444 122.127 119.843 122.19C121.688 122.489 123.459 122.733 125.156 122.922C130.675 123.538 135.454 123.586 139.708 123.064C140.903 122.918 142.058 122.726 143.173 122.489C143.582 122.403 143.985 122.311 144.384 122.212C144.477 122.19 144.569 122.168 144.661 122.144C145.485 121.931 146.243 121.515 146.865 120.934C147.487 120.353 147.953 119.624 148.221 118.816C148.541 117.88 148.587 116.871 148.353 115.909Z" fill="#2F2E41"/>
<path d="M128.511 78.2298C132.075 78.2298 134.965 75.2751 134.965 71.6304C134.965 67.9856 132.075 65.031 128.511 65.031C124.946 65.031 122.057 67.9856 122.057 71.6304C122.057 75.2751 124.946 78.2298 128.511 78.2298Z" fill="#FFB6B6"/>
<path d="M143.836 106.818C143.826 106.744 143.814 106.671 143.798 106.597C143.645 105.787 143.246 104.993 142.861 104.223C142.494 103.489 142.145 102.794 142.001 102.104C141.859 101.424 141.943 100.741 142.025 100.083C142.113 99.3689 142.205 98.6307 141.999 97.9145C140.957 94.2568 139.526 90.7214 137.731 87.3689C137.278 85.8947 136.409 84.5825 135.229 83.5896C134.05 82.5967 132.608 81.9652 131.079 81.7709C131.257 81.4373 131.332 81.0579 131.292 80.6816C131.267 80.4384 131.194 80.2027 131.078 79.988C130.961 79.7732 130.803 79.5838 130.612 79.4307C130.429 79.2833 130.219 79.1735 129.993 79.1078C129.768 79.042 129.531 79.0216 129.298 79.0477L126.298 79.3848C125.817 79.4452 125.379 79.6931 125.08 80.0745C124.781 80.456 124.644 80.9401 124.7 81.4217C124.717 81.57 124.751 81.7159 124.8 81.8566C122.016 85.4038 120.586 88.6357 120.454 91.6921V91.6941C120.438 92.047 120.44 92.4006 120.46 92.7534C120.523 93.8944 120.771 95.0176 121.194 96.0791C121.693 97.3054 122.362 98.4557 123.18 99.4966C123.348 99.708 123.522 99.9155 123.701 100.119C123.869 100.318 124.056 100.528 124.264 100.747L124.788 101.569L125.277 102.337L127.89 108.368L129.22 108.324L129.405 109.651L129.449 109.96L130.311 113.047L130.375 113.278L131.554 112.717L138.586 109.378L143.844 106.88L143.836 106.818Z" fill="#427A92"/>
<path opacity="0.2" d="M121.274 96.0471C121.874 97.5163 122.717 98.8738 123.768 100.063C123.948 100.278 124.138 100.489 124.337 100.7L125.358 102.303C129.121 99.481 132.171 88.371 132.171 88.371L127.924 87.5448L121.274 96.0471Z" fill="black"/>
<path d="M118.703 78.8463C119.075 79.4852 119.183 80.244 119.004 80.9612C118.825 81.6785 118.374 82.2976 117.745 82.6868C117.616 82.7639 117.481 82.8302 117.341 82.885L117.642 92.7809L113.358 90.0832L113.729 81.0995C113.547 80.5017 113.567 79.8603 113.788 79.2755C114.008 78.6906 114.416 78.1952 114.948 77.8666C115.562 77.4948 116.299 77.3824 116.996 77.5541C117.694 77.7258 118.294 78.1675 118.666 78.7821C118.679 78.8034 118.691 78.8247 118.703 78.8463Z" fill="#FFB6B6"/>
<path d="M118.018 89.0455L113.307 89.7157L113.509 99.4749C113.521 100.171 113.711 100.853 114.06 101.455C114.409 102.057 114.907 102.56 115.505 102.916C116.236 103.346 117.087 103.527 117.93 103.431C118.773 103.336 119.562 102.969 120.178 102.385L131.301 91.6837C132.084 90.941 132.552 89.9267 132.61 88.8492C132.668 87.7717 132.311 86.713 131.612 85.8909C130.927 85.0804 129.949 84.575 128.892 84.4861C127.835 84.3971 126.785 84.7319 125.975 85.4166C125.943 85.4434 125.912 85.4707 125.881 85.4984C125.771 85.5967 125.667 85.7009 125.568 85.8105L118.223 94.2621L118.018 89.0455Z" fill="#7CC0DD"/>
<path d="M122.361 147.708L122.188 147.74L119.842 148.173L119.078 148.315L117.875 148.536L118.302 150.258C118.815 149.98 119.322 149.695 119.826 149.404L119.83 149.402L119.842 149.4V149.394C120.652 148.931 121.452 148.452 122.242 147.957C122.297 147.923 122.353 147.89 122.409 147.852L122.361 147.708Z" fill="#2F2E41"/>
<path d="M104.906 147.933L101.968 146.525L101.507 146.304L100.771 148.111L95.6335 149.242C95.3795 149.298 95.1499 149.433 94.9783 149.629C94.8067 149.824 94.7022 150.07 94.6799 150.329C94.6576 150.588 94.7188 150.848 94.8545 151.069C94.9902 151.291 95.1932 151.464 95.4341 151.562L100.454 153.611L102.048 152.177L101.657 154.102L103.548 154.874L105.62 148.277L104.906 147.933Z" fill="#2F2E41"/>
<path d="M145.783 68.7683C144.686 67.4886 144.164 65.7909 143.287 64.3378C142.41 62.8847 140.884 61.5841 139.272 61.9223C138.16 62.1554 137.301 63.1364 136.866 64.2301C136.432 65.3237 136.35 66.5298 136.274 67.7114C136.301 65.2832 134.701 62.9293 132.498 62.1545C130.295 61.3797 127.659 62.2439 126.274 64.1947C125.67 63.6346 124.881 63.3157 124.058 63.2984C123.234 63.2811 122.433 63.5666 121.806 64.1009C120.568 65.2078 120.294 67.3148 121.204 68.7268C122.115 70.1387 124.087 70.6647 125.535 69.8816L126.046 70.3524C125.758 71.3599 126.317 72.55 127.256 72.9293C128.017 73.2369 129.092 73.1857 129.376 73.9848C129.576 74.5431 129.203 75.1391 128.808 75.5682C128.412 75.9972 127.942 76.4403 127.894 77.034C127.823 77.9299 128.748 78.5574 129.589 78.7464C131.618 79.2022 133.869 78.2625 135.039 76.4717C135.061 76.4372 135.086 76.4026 135.112 76.368C135.768 75.5288 136.246 74.5647 136.517 73.5345C136.788 72.5043 136.846 71.4297 136.688 70.3762C136.622 69.9623 136.688 69.6545 136.974 69.5565C138.207 69.1328 141.662 70.022 142.707 70.8257C143.753 71.6293 144.59 72.6929 145.597 73.5484C146.605 74.404 147.888 75.0639 149.167 74.8309C150.191 74.6443 151.062 73.9006 151.649 73.0035C152.235 72.1064 152.572 71.0607 152.874 70.0215C150.609 71.3301 147.509 70.7823 145.783 68.7683Z" fill="#2F2E41"/>
<path d="M125.154 108.106V146.051C124.432 146.548 123.7 147.032 122.96 147.502V110.622C122.96 109.553 122.601 108.685 122.16 108.683H88.9527C88.5099 108.685 88.1529 109.553 88.1509 110.622V159.591C87.7081 159.635 87.2653 159.677 86.8225 159.713C86.639 159.729 86.4535 159.743 86.27 159.757C86.1643 159.562 86.0606 159.364 85.9569 159.165V108.106C85.9569 107.811 85.9689 107.514 85.9888 107.22C86.1683 104.731 87.0599 102.911 88.103 102.907H123.008C123.134 102.908 123.259 102.935 123.375 102.985C124.248 103.356 124.938 104.984 125.112 107.089C125.14 107.424 125.156 107.765 125.154 108.106Z" fill="#E4E4E4"/>
<path d="M71.8756 108.106V159.44C71.8457 159.488 71.8158 159.534 71.7859 159.582C71.0359 159.506 70.2893 159.419 69.546 159.32V110.622C69.546 109.553 69.165 108.685 68.6963 108.683H33.4506C32.9819 108.685 32.6009 109.553 32.6009 110.622V144.429C31.8131 143.849 31.0365 143.254 30.2713 142.644V108.106C30.2713 107.811 30.2833 107.514 30.3052 107.22C30.4947 104.731 31.4421 102.911 32.5511 102.907H69.5958C69.7293 102.908 69.8614 102.934 69.9848 102.985C70.9122 103.356 71.6462 104.984 71.8317 107.089C71.8616 107.424 71.8756 107.765 71.8756 108.106Z" fill="#E4E4E4"/>
<path d="M60.063 91.0468L62.3729 101.212L63.8488 102.83H64.9137L60.5251 84.3465L60.3079 87.4865V87.4887L60.063 91.0468Z" fill="#3F3D56"/>
<path d="M67.7534 103.349C67.7467 103.333 67.738 103.318 67.7275 103.305C67.7062 103.257 67.6757 103.214 67.6377 103.177L67.3684 102.908L65.9523 101.49C65.8483 101.388 65.7088 101.331 65.5634 101.33H65.5574L64.5581 101.336L63.6985 101.342L62.4978 101.35L54.3201 101.402L48.9448 101.436C48.7992 101.437 48.6602 101.496 48.5576 101.6C48.455 101.703 48.3971 101.843 48.3963 101.988C48.3971 102.069 48.4148 102.148 48.4482 102.222L48.5519 102.443L48.7693 102.908L49.0525 103.516L49.1921 103.816C49.2366 103.911 49.3074 103.992 49.396 104.048C49.4847 104.105 49.5876 104.135 49.6928 104.135H67.2468C67.3391 104.133 67.4296 104.109 67.5103 104.064C67.591 104.019 67.6594 103.955 67.7094 103.877C67.7595 103.799 67.7897 103.71 67.7973 103.618C67.805 103.526 67.7899 103.434 67.7534 103.349Z" fill="#3F3D56"/>
<path opacity="0.17" d="M49.0528 103.516L49.1914 103.816C49.2365 103.911 49.3074 103.992 49.3961 104.048C49.4848 104.104 49.5875 104.135 49.6926 104.135H67.2474C67.3397 104.134 67.4302 104.109 67.5108 104.064C67.5915 104.019 67.6598 103.955 67.7098 103.877C67.7598 103.8 67.7899 103.711 67.7975 103.619C67.8051 103.527 67.7899 103.434 67.7532 103.35C67.747 103.334 67.7384 103.319 67.7278 103.306L49.0528 103.516Z" fill="black"/>
<path opacity="0.17" d="M60.3077 87.4865V87.4887L64.0658 102.83H64.9135L60.5249 84.3465L60.3077 87.4865Z" fill="black"/>
<path d="M66.2023 44.5559L65.6518 44.482C65.5007 44.4624 65.348 44.5032 65.227 44.5958L64.8979 44.8491L61.2339 49.4337C61.1129 49.5272 61.034 49.665 61.0145 49.8167L60.8091 51.3768L55.695 90.2975C55.6768 90.4417 55.7131 90.5876 55.7967 90.7065L58.2062 97.3499L58.278 97.4536L58.4335 97.6751C58.5137 97.7875 58.6309 97.8681 58.7646 97.9025L59.1137 97.9903C59.193 98.0101 59.2756 98.0129 59.356 97.9985C59.4365 97.9841 59.513 97.9527 59.5804 97.9065C59.6481 97.861 59.7052 97.8014 59.7479 97.7319C59.7906 97.6624 59.8178 97.5845 59.8277 97.5035L60.452 92.7594V92.7574L60.8509 89.713L61.188 87.1454V87.1434L66.7009 45.2022C66.7208 45.0508 66.6798 44.8977 66.5868 44.7765C66.4938 44.6554 66.3565 44.5761 66.2051 44.5562L66.2023 44.5559Z" fill="#3F3D56"/>
<path opacity="0.17" d="M64.8986 44.8493L58.2073 97.3508L58.28 97.4536L58.4351 97.6744C58.5151 97.787 58.6324 97.8677 58.7663 97.902L59.1158 97.9898C59.1949 98.0095 59.2773 98.0122 59.3575 97.9978C59.4378 97.9834 59.5141 97.9522 59.5815 97.9063C59.6488 97.8604 59.7058 97.8008 59.7485 97.7314C59.7913 97.662 59.819 97.5843 59.8297 97.5035L66.7019 45.2029C66.7218 45.051 66.6806 44.8975 66.5874 44.776C66.4941 44.6545 66.3565 44.575 66.2046 44.555L65.6527 44.4824C65.5778 44.4723 65.5017 44.4772 65.4287 44.4968C65.3557 44.5164 65.2874 44.5504 65.2277 44.5967L64.8986 44.8493Z" fill="black"/>
<path d="M64.6996 46.3507L61.1488 51.4202L56.9283 83.5401L59.2164 88.0806L64.6996 46.3507Z" fill="url(#paint0_linear_517_5294)"/>
<path d="M99.2887 91.0468L96.9788 101.212L95.5029 102.83H94.438L98.8268 84.3465L99.0438 87.4865V87.4887L99.2887 91.0468Z" fill="#3F3D56"/>
<path d="M110.405 101.436L96.8539 101.35L95.6512 101.342L94.7936 101.336L93.7943 101.33H93.7863C93.6414 101.33 93.5024 101.388 93.3994 101.49L91.712 103.177C91.6746 103.214 91.6442 103.257 91.6222 103.305C91.6117 103.318 91.603 103.333 91.5963 103.349C91.5598 103.434 91.5447 103.526 91.5524 103.618C91.56 103.71 91.5902 103.799 91.6403 103.877C91.6903 103.955 91.7587 104.019 91.8394 104.064C91.9201 104.109 92.0106 104.133 92.1029 104.135H109.657C109.762 104.135 109.865 104.104 109.954 104.048C110.043 103.991 110.114 103.911 110.16 103.816L110.297 103.516L110.58 102.908L110.902 102.222C110.936 102.149 110.954 102.069 110.953 101.988C110.953 101.843 110.895 101.703 110.792 101.6C110.69 101.496 110.55 101.437 110.405 101.436Z" fill="#3F3D56"/>
<path opacity="0.17" d="M110.299 103.516L110.161 103.816C110.116 103.911 110.045 103.992 109.956 104.048C109.867 104.104 109.765 104.135 109.66 104.135H92.1048C92.0125 104.134 91.922 104.109 91.8414 104.064C91.7607 104.019 91.6924 103.955 91.6424 103.877C91.5924 103.8 91.5623 103.711 91.5547 103.619C91.5471 103.527 91.5623 103.434 91.599 103.35C91.6052 103.334 91.6138 103.319 91.6244 103.306L110.299 103.516Z" fill="black"/>
<path opacity="0.17" d="M99.0438 87.4865V87.4887L95.2857 102.83H94.438L98.8268 84.3465L99.0438 87.4865Z" fill="black"/>
<path d="M103.656 90.2976L98.3365 49.8168C98.317 49.665 98.2381 49.5273 98.1171 49.4337L94.4551 44.8492L94.126 44.5958C94.0041 44.5035 93.8509 44.4627 93.6992 44.4821L93.1487 44.5559C92.9969 44.5755 92.8591 44.6546 92.7655 44.7758C92.672 44.897 92.6305 45.0504 92.6501 45.2023L98.163 87.1454V87.1474L98.5001 89.713L98.901 92.7594V92.7634L99.5233 97.5035C99.5332 97.5848 99.5606 97.6629 99.6037 97.7324C99.6467 97.802 99.7043 97.8614 99.7726 97.9065C99.8397 97.9527 99.9158 97.9841 99.9959 97.9985C100.076 98.013 100.158 98.0102 100.237 97.9903L100.586 97.9025C100.72 97.8681 100.837 97.7876 100.917 97.6751L101.073 97.4537L101.145 97.3499L103.554 90.7065C103.639 90.588 103.675 90.4418 103.656 90.2976Z" fill="#3F3D56"/>
<path opacity="0.17" d="M94.4535 44.8493L101.145 97.3508L101.072 97.4535L100.917 97.6743C100.837 97.787 100.72 97.8676 100.586 97.902L100.236 97.9898C100.157 98.0094 100.075 98.0121 99.9946 97.9977C99.9144 97.9834 99.8381 97.9522 99.7707 97.9063C99.7033 97.8604 99.6464 97.8008 99.6036 97.7313C99.5608 97.6619 99.5332 97.5843 99.5224 97.5035L92.6502 45.2029C92.6303 45.051 92.6715 44.8975 92.7648 44.776C92.858 44.6545 92.9957 44.575 93.1475 44.555L93.6994 44.4824C93.7743 44.4723 93.8504 44.4772 93.9234 44.4968C93.9964 44.5164 94.0647 44.5503 94.1245 44.5966L94.4535 44.8493Z" fill="black"/>
<path d="M94.6512 46.3507L98.2021 51.4202L102.423 83.5401L100.134 88.0806L94.6512 46.3507Z" fill="url(#paint1_linear_517_5294)"/>
<path d="M28.6526 111.109C28.6531 111.21 28.6444 111.31 28.6266 111.409C28.6187 111.457 28.6087 111.502 28.5967 111.548C28.4996 111.919 28.2823 112.248 27.9788 112.482C27.6753 112.716 27.3027 112.843 26.9193 112.843H19.4138V130.748C19.4142 131.127 19.2901 131.495 19.0608 131.796C18.8893 131.594 18.7197 131.393 18.5522 131.189C17.6546 130.116 16.787 129.019 15.9493 127.898V112.843H12.5984C12.1516 112.843 11.7222 112.67 11.3999 112.36C11.0776 112.051 10.8873 111.629 10.8687 111.182C10.8502 110.736 11.0049 110.299 11.3004 109.964C11.596 109.629 12.0096 109.421 12.4548 109.384C12.5027 109.38 12.5506 109.378 12.5984 109.378H26.9193C27.3787 109.378 27.8194 109.56 28.1444 109.885C28.4694 110.209 28.6522 110.65 28.6526 111.109Z" fill="#3F3D56"/>
<path d="M148.253 111.109C148.253 111.46 148.147 111.803 147.948 112.092C147.749 112.382 147.468 112.604 147.14 112.729C146.985 112.789 146.821 112.825 146.655 112.837C146.611 112.841 146.566 112.843 146.522 112.843H143.173V129.095C143.123 129.16 143.071 129.226 143.019 129.292C142.231 130.3 141.42 131.287 140.584 132.255C140.317 132.104 140.095 131.885 139.941 131.621C139.787 131.356 139.707 131.055 139.708 130.748V112.843H132.201C131.979 112.844 131.76 112.801 131.555 112.717C131.296 112.614 131.067 112.45 130.885 112.239C130.704 112.027 130.576 111.776 130.513 111.504V111.503C130.42 111.109 130.47 110.694 130.653 110.333C130.651 110.331 130.651 110.331 130.653 110.331C130.732 110.173 130.836 110.027 130.96 109.9C131.122 109.735 131.315 109.604 131.528 109.514C131.741 109.424 131.97 109.378 132.201 109.378H146.522C146.981 109.378 147.421 109.56 147.746 109.885C148.07 110.209 148.253 110.65 148.253 111.109L148.253 111.109Z" fill="#3F3D56"/>
<path d="M148.139 77.7254C147.426 77.7254 146.72 77.8658 146.062 78.1387C145.403 78.4115 144.805 78.8114 144.301 79.3156C143.797 79.8198 143.397 80.4183 143.124 81.077C142.851 81.7357 142.711 82.4417 142.711 83.1547C142.711 84.4142 143.149 85.6345 143.949 86.6066C144.75 87.5787 145.864 88.2422 147.099 88.4836V97.3635H150.564V77.7254H148.139Z" fill="#3F3D56"/>
<path d="M53.3663 97.5507C53.0207 97.3478 52.6349 97.2231 52.2359 97.1855C51.837 97.1479 51.4347 97.1983 51.0573 97.333C50.6799 97.4677 50.3367 97.6836 50.0517 97.9654C49.7668 98.2471 49.5471 98.588 49.4081 98.9639L43.1495 99.208L42.3062 102.124L51.2037 102.579C51.8505 102.771 52.5452 102.719 53.1561 102.433C53.7669 102.146 54.2516 101.646 54.5181 101.026C54.7847 100.406 54.8147 99.7098 54.6024 99.0693C54.3901 98.4288 53.9503 97.8885 53.3663 97.5507Z" fill="#FFB6B6"/>
<path d="M48.2269 102.894L41.798 102.814L40.9842 102.803L27.9045 102.638C27.9045 102.638 24.3525 99.2486 21.2597 95.759L21.6932 92.6227C22.1161 89.5448 23.6425 86.7254 25.9885 84.6892C30.4182 87.6498 32.9871 93.5099 32.9871 93.5099L37.2943 95.4377C40.3255 95.5734 43.2793 96.4386 45.9048 97.96L47.3212 98.7808L48.2269 102.894Z" fill="#7CC0DD"/>
<path d="M68.4254 159.165H91.614C90.0324 159.397 88.436 159.58 86.8251 159.714H73.2143C71.6027 159.58 70.0064 159.397 68.4254 159.165Z" fill="#CCCCCC"/>
<path d="M73.0864 147.489C73.5352 143.437 75.988 139.419 79.8268 138.051C78.3616 142.234 78.423 146.801 80 150.944C80.614 152.539 81.463 154.249 80.9272 155.873C80.5939 156.883 79.7557 157.663 78.8138 158.157C77.8718 158.651 76.8224 158.894 75.786 159.133L75.5837 159.305C73.8839 155.6 72.6376 151.54 73.0864 147.489Z" fill="#CCCCCC"/>
<path d="M79.8663 138.127C77.6542 140.674 76.3006 143.853 75.9979 147.214C75.9199 147.936 75.9562 148.666 76.1054 149.377C76.2732 150.064 76.622 150.695 77.1157 151.202C77.5665 151.684 78.0835 152.126 78.4093 152.709C78.5716 153.01 78.6684 153.342 78.6934 153.684C78.7184 154.025 78.671 154.368 78.5543 154.689C78.2844 155.498 77.74 156.162 77.1851 156.792C76.5689 157.492 75.9178 158.21 75.6643 159.13C75.6336 159.242 75.4623 159.188 75.493 159.076C75.9342 157.475 77.4705 156.548 78.1897 155.101C78.5253 154.426 78.6596 153.645 78.3271 152.942C78.0363 152.326 77.5036 151.871 77.0429 151.387C76.5541 150.899 76.1921 150.299 75.9886 149.639C75.8036 148.938 75.7393 148.21 75.7983 147.488C75.9052 145.859 76.2676 144.257 76.872 142.74C77.5523 141.006 78.5242 139.4 79.7457 137.994C79.8213 137.907 79.9414 138.041 79.8663 138.127Z" fill="white"/>
<path d="M76.0328 146.126C75.4761 145.998 74.9827 145.677 74.6408 145.22C74.299 144.762 74.1308 144.198 74.1665 143.628C74.1682 143.605 74.1788 143.583 74.1961 143.567C74.2135 143.552 74.2362 143.544 74.2594 143.544C74.2827 143.545 74.3047 143.555 74.3209 143.572C74.337 143.589 74.3461 143.611 74.346 143.634C74.3118 144.165 74.4685 144.691 74.7877 145.116C75.1069 145.542 75.5677 145.839 76.0868 145.955C76.1996 145.98 76.1449 146.151 76.0328 146.126Z" fill="white"/>
<path d="M76.8562 150.988C77.8505 150.376 78.5777 149.411 78.8927 148.287C78.9238 148.176 79.095 148.23 79.064 148.341C78.734 149.51 77.9752 150.512 76.9391 151.147C76.8404 151.208 76.758 151.048 76.8562 150.988Z" fill="white"/>
<path d="M77.7203 141.174C77.9254 141.268 78.1508 141.31 78.376 141.295C78.6013 141.281 78.8194 141.21 79.0108 141.091C79.1088 141.029 79.1911 141.189 79.0938 141.25C78.8816 141.381 78.6406 141.459 78.3918 141.475C78.143 141.492 77.8939 141.447 77.6663 141.345C77.644 141.337 77.6256 141.321 77.6147 141.3C77.6038 141.279 77.6013 141.255 77.6076 141.232C77.6149 141.21 77.6308 141.191 77.6519 141.18C77.673 141.169 77.6976 141.167 77.7203 141.174Z" fill="white"/>
<path d="M91.6788 145.118C91.6187 145.158 91.5586 145.198 91.4985 145.24C90.6935 145.785 89.9341 146.395 89.2277 147.063C89.1723 147.114 89.1169 147.166 89.063 147.218C87.3785 148.846 86.0107 150.772 85.0292 152.899C84.6394 153.746 84.3146 154.621 84.0576 155.517C83.7027 156.755 83.4163 158.125 82.6947 159.143C82.6206 159.25 82.5399 159.352 82.4532 159.449L75.8098 159.538C75.7946 159.531 75.7794 159.525 75.7641 159.517L75.499 159.533C75.5091 159.486 75.5205 159.437 75.5305 159.39C75.5362 159.363 75.5434 159.335 75.5491 159.308C75.5534 159.29 75.5577 159.272 75.5605 159.255C75.5619 159.249 75.5634 159.243 75.5648 159.238C75.5676 159.221 75.572 159.206 75.5748 159.191C75.6379 158.919 75.703 158.646 75.7701 158.374C75.77 158.373 75.77 158.373 75.7715 158.371C76.263 156.291 76.9994 154.277 77.9652 152.37C77.9948 152.314 78.0243 152.256 78.057 152.199C78.5048 151.355 79.0208 150.549 79.5999 149.789C79.9183 149.374 80.2575 148.975 80.6163 148.594C81.5451 147.612 82.6226 146.782 83.8094 146.134C86.1753 144.844 88.9273 144.325 91.484 145.06C91.5494 145.079 91.6134 145.098 91.6788 145.118Z" fill="#CCCCCC"/>
<path d="M91.6654 145.202C88.3661 145.904 85.3716 147.627 83.1073 150.128C82.6102 150.658 82.1998 151.262 81.8911 151.92C81.611 152.57 81.5101 153.283 81.5989 153.986C81.6685 154.642 81.8158 155.306 81.7246 155.968C81.673 156.306 81.5504 156.63 81.3649 156.917C81.1795 157.205 80.9354 157.45 80.6486 157.636C79.9462 158.12 79.112 158.322 78.2894 158.491C77.3761 158.679 76.4244 158.86 75.6678 159.442C75.5761 159.513 75.472 159.366 75.5635 159.296C76.8799 158.282 78.6646 158.468 80.1098 157.745C80.7841 157.408 81.3611 156.866 81.519 156.104C81.6572 155.438 81.506 154.754 81.4297 154.089C81.333 153.405 81.4053 152.708 81.6401 152.059C81.9144 151.387 82.3009 150.768 82.783 150.227C83.8489 148.99 85.1025 147.929 86.4978 147.083C88.085 146.107 89.8273 145.411 91.6493 145.023C91.7621 145 91.7775 145.179 91.6654 145.202Z" fill="white"/>
<path d="M83.788 149.28C83.4201 148.843 83.2195 148.289 83.2219 147.718C83.2244 147.147 83.4298 146.595 83.8015 146.161C83.877 146.074 84.0165 146.187 83.9409 146.275C83.594 146.678 83.4028 147.192 83.4015 147.724C83.4003 148.256 83.5893 148.771 83.9342 149.176C84.0091 149.264 83.8624 149.367 83.788 149.28Z" fill="white"/>
<path d="M81.5197 153.658C82.682 153.768 83.843 153.436 84.7714 152.727C84.8633 152.657 84.9674 152.804 84.8756 152.874C83.9082 153.609 82.6992 153.952 81.49 153.835C81.3747 153.823 81.4051 153.646 81.5197 153.658Z" fill="white"/>
<path d="M88.1173 146.343C88.2244 146.542 88.3792 146.711 88.5677 146.835C88.7563 146.959 88.9727 147.035 89.1976 147.054C89.3129 147.064 89.2824 147.241 89.1679 147.231C88.9195 147.208 88.6806 147.125 88.472 146.988C88.2633 146.852 88.0913 146.666 87.971 146.448C87.9579 146.428 87.9528 146.404 87.9567 146.381C87.9606 146.357 87.9732 146.337 87.992 146.322C88.0114 146.309 88.0355 146.303 88.059 146.307C88.0824 146.311 88.1034 146.324 88.1173 146.343Z" fill="white"/>
<path d="M83.1964 27.6713C70.7683 30.9411 56.9979 32.9302 42.9962 33.4748C40.9442 33.5866 38.8873 33.5726 36.837 33.4329C32.3314 33.0539 28.4719 31.6374 24.1737 30.8633C22.1073 30.4923 19.8056 30.2209 17.7253 29.8199C18.206 29.2234 18.6953 28.6342 19.1933 28.0524C23.679 28.4314 28.2346 29.6723 32.7741 30.2489C40.4911 31.2304 49.1374 30.1352 54.9874 27.4339C57.8257 26.1232 59.9997 24.4873 62.828 23.1706C63.2127 22.973 63.6294 22.8454 64.0587 22.7935C64.9542 22.7117 65.7401 23.0728 66.3803 23.396C71.1253 25.792 78.0145 27.7391 84.409 26.6678C84.8857 27.0409 83.9802 27.4658 83.1964 27.6713Z" fill="white"/>
<path d="M111.492 36.1032C111.55 36.0925 111.609 36.0842 111.667 36.0741C111.422 35.9218 111.19 35.7475 110.976 35.5533L111.492 36.1032Z" fill="white"/>
<path d="M149.771 40.8304C147.1 41.0439 144.415 41.2028 141.717 41.3072C139.665 41.418 137.608 41.404 135.557 41.2653C131.052 40.8843 127.192 39.4698 122.894 38.6957C118.955 37.9875 114.168 37.6464 111.667 36.0743C118.131 34.9551 124.829 37.2334 131.494 38.0813C136.886 38.7444 142.352 38.4745 147.652 37.2833C148.39 38.4444 149.096 39.6267 149.771 40.8304Z" fill="white"/>
<path d="M89.6507 70.7564C83.394 49.2763 79.7115 27.129 79.7115 4.75593V3.13446H77.6327V4.7559C77.6327 27.129 73.95 49.2763 67.6934 70.7564C67.391 71.7963 67.2378 72.8739 67.2384 73.9568C67.2384 74.3664 67.3191 74.772 67.4758 75.1505C67.6325 75.5289 67.8622 75.8727 68.1517 76.1623C68.4413 76.452 68.785 76.6817 69.1634 76.8384C69.5417 76.9952 69.9472 77.0759 70.3567 77.0759H74.5144C74.5144 77.622 74.6219 78.1628 74.8309 78.6673C75.0398 79.1719 75.3461 79.6303 75.7321 80.0165C76.1182 80.4027 76.5766 80.709 77.081 80.918C77.5854 81.127 78.1261 81.2345 78.6721 81.2345C79.2181 81.2345 79.7587 81.127 80.2631 80.918C80.7676 80.709 81.2259 80.4027 81.612 80.0165C81.9981 79.6303 82.3043 79.1719 82.5133 78.6673C82.7222 78.1628 82.8298 77.622 82.8298 77.0759H86.0651V86.0391C85.6087 86.0524 85.1748 86.2399 84.8523 86.5632C84.5298 86.8864 84.3432 87.3209 84.3309 87.7774C84.3186 88.2339 84.4814 88.6778 84.786 89.018C85.0906 89.3582 85.5138 89.5689 85.9688 89.6068C86.4238 89.6447 86.876 89.507 87.2327 89.2219C87.5894 88.9368 87.8234 88.526 87.8867 88.0737C87.9501 87.6215 87.838 87.1621 87.5734 86.7899C87.3089 86.4178 86.9119 86.161 86.464 86.0723V77.0759H86.9875C87.8145 77.0759 88.6076 76.7472 89.1924 76.1623C89.7772 75.5774 90.1057 74.7841 90.1057 73.9569C90.1064 72.8739 89.9532 71.7962 89.6507 70.7564Z" fill="white"/>
</g>
<defs>
<linearGradient id="paint0_linear_517_5294" x1="60.814" y1="46.3507" x2="60.814" y2="88.0806" gradientUnits="userSpaceOnUse">
<stop stop-color="#7CC0DD"/>
<stop offset="1" stop-color="#C9EFFF"/>
</linearGradient>
<linearGradient id="paint1_linear_517_5294" x1="98.5369" y1="46.3507" x2="98.5369" y2="88.0806" gradientUnits="userSpaceOnUse">
<stop stop-color="#7CC0DD"/>
<stop offset="1" stop-color="#C9EFFF"/>
</linearGradient>
<clipPath id="clip0_517_5294">
<rect width="160" height="160" fill="white"/>
</clipPath>
</defs>
</svg>
