<svg width="93" height="24" viewBox="0 0 93 24" fill="none" xmlns="http://www.w3.org/2000/svg">
  <!-- Arc -->
  <g transform="translate(0, 0)">
    <path d="M34.3394 9.28459C34.3394 8.65941 34.1516 8.17471 33.7763 7.83094C33.401 7.48718 32.9106 7.31518 32.3061 7.31518C31.8055 7.31518 31.3099 7.44023 30.8202 7.69023C30.33 7.94035 29.8608 8.26376 29.4126 8.65941C28.9638 9.05553 28.5523 9.47223 28.177 9.90988C28.177 9.47223 28.1818 9.03988 28.1927 8.61247C28.2029 8.18565 28.2186 7.79482 28.2395 7.44023L28.0517 7.25259L22.5775 9.59729L22.9529 10.4726C23.0569 10.4311 23.1767 10.3945 23.3126 10.3632C23.448 10.3319 23.62 10.3162 23.8288 10.3162C24.3499 10.3162 24.6627 10.4833 24.7673 10.8165C24.8714 11.15 24.9236 11.6189 24.9236 12.2233V20.4139C24.9236 21.1436 24.7462 21.68 24.3918 22.0239C24.1851 22.2244 23.7703 22.5335 23.1003 22.5335C22.7245 22.5335 22.3131 22.4434 21.9751 22.2115C21.7292 22.0428 21.4951 21.7582 21.2556 21.3831C21.0156 21.008 20.7395 20.4975 20.4267 19.8512L11.5115 0H11.1987L2.59635 19.6948C2.17891 20.6952 1.7723 21.3936 1.3764 21.7894C0.980505 22.1852 0.521035 22.4356 0 22.5396V23.5087H5.94352V22.5396C5.54716 22.5396 5.16633 22.4302 4.80174 22.2114C4.43657 21.9926 4.20737 21.6281 4.11354 21.1172C4.0196 20.6068 4.17064 19.9034 4.56712 19.0071L5.55563 16.7249H14.9695L15.9223 18.882C16.2141 19.5907 16.3549 20.1745 16.3446 20.6326C16.3339 21.0913 16.2087 21.4611 15.9693 21.7425C15.7294 22.0238 15.4322 22.2271 15.0778 22.352C14.723 22.4771 14.3686 22.5396 14.0143 22.5396V23.5087H30.4608V22.5396C29.6681 22.5396 29.0893 22.3678 28.7246 22.0238C28.3595 21.6799 28.1774 21.1328 28.1774 20.3826V11.6606C28.4901 11.2439 28.8132 10.8634 29.147 10.5195C29.4803 10.1756 29.8142 10.0036 30.148 10.0036C30.3772 10.0036 30.5596 10.0613 30.6954 10.1755C30.8307 10.2904 30.9716 10.4256 31.1177 10.582C31.2633 10.7384 31.4461 10.8844 31.6651 11.0196C31.884 11.1554 32.1813 11.2228 32.5566 11.2228C33.1197 11.2228 33.5576 11.0249 33.8704 10.6288C34.1831 10.2332 34.3394 9.78482 34.3394 9.28459ZM6.17826 15.2868L10.2162 5.96471L14.334 15.2868H6.17826Z" fill="#E3E3E3"/>
  </g>
  <!-- c -->
  <g transform="translate(33.85, 7.32)">
    <path d="M12.6379 10.1286C12.3251 10.7123 11.96 11.2697 11.543 11.8011C11.1256 12.3326 10.6461 12.7703 10.104 13.1142C9.5616 13.458 8.8734 13.6299 8.0395 13.6299C6.9965 13.6299 6.079 13.3539 5.2867 12.8015C4.494 12.2495 3.879 11.4679 3.4411 10.4569C3.0031 9.44629 2.7841 8.24259 2.7841 6.84619C2.7841 6.01289 2.8829 5.25719 3.0812 4.57969C3.2792 3.90259 3.5711 3.30329 3.9571 2.78209C4.3427 2.26141 4.812 1.85988 5.3648 1.57859C5.917 1.29717 6.5379 1.15659 7.2261 1.15659C7.9143 1.15659 8.4406 1.32365 8.8058 1.65682C9.1705 1.99035 9.3532 2.45929 9.3532 3.06369C9.3532 3.27219 9.3478 3.44409 9.3375 3.57939C9.3267 3.71519 9.3219 3.88719 9.3219 4.09519C9.3219 4.61639 9.4626 5.05399 9.7441 5.40829C10.0257 5.76289 10.4792 5.93969 11.1049 5.93969C11.6886 5.93969 12.1265 5.76779 12.4188 5.42389C12.7106 5.07999 12.8567 4.69999 12.8567 4.28279C12.8567 3.46999 12.6377 2.74069 12.1998 2.09447C11.7619 1.4487 11.1466 0.93776 10.3542 0.5627C9.5614 0.18753 8.6024 0 7.4764 0C6.5794 0 5.6825 0.1827 4.7861 0.54706C3.8891 0.912 3.0812 1.44882 2.3617 2.15706C1.6423 2.86579 1.0684 3.74649 0.6413 4.79869C0.2135 5.85129 0 7.08619 0 8.50319C0 10.2124 0.302101 11.6715 0.907101 12.8798C1.5119 14.0887 2.3149 15.0056 3.3158 15.6309C4.3168 16.2562 5.443 16.5687 6.6942 16.5687C7.7158 16.5687 8.5971 16.3758 9.3375 15.9904C10.0775 15.605 10.7138 15.1102 11.2457 14.5055C11.7775 13.9012 12.2154 13.2502 12.5595 12.5516C12.9036 11.8536 13.211 11.2025 13.4823 10.5978L12.6379 10.1286Z" fill="#E3E3E3"/>
  </g>
  <!-- l + i(stem) + n -->
  <g transform="translate(46.60, 0.25)">
    <path d="M30.9479 20.1321V12.5042C30.9479 11.4208 30.7916 10.4722 30.4788 9.6594C30.166 8.84658 29.6811 8.21105 29.0243 7.75246C28.3674 7.29423 27.5277 7.0647 26.5061 7.0647C25.7969 7.0647 25.1033 7.18976 24.4258 7.43976C23.7479 7.68987 23.1379 8.00246 22.5958 8.37764C22.0534 8.75282 21.5949 9.14893 21.2196 9.56564C21.2196 9.19058 21.2244 8.78952 21.2352 8.36211C21.2455 7.93529 21.2611 7.54446 21.2821 7.18987L21.0943 7.00223L15.62 9.34693L15.9954 10.2222C16.0995 10.1807 16.2192 10.1441 16.3552 10.1128C16.4906 10.0815 16.6626 10.0658 16.8714 10.0658C17.3924 10.0658 17.7052 10.2329 17.8099 10.5661C17.9139 10.8996 17.9662 11.3686 17.9662 11.9729V20.1635C17.9662 20.8933 17.7888 21.4296 17.4343 21.7735C17.0827 22.1144 16.5055 22.2857 15.7035 22.2888C14.9011 22.2857 14.3134 22.1144 13.9413 21.7735C13.566 21.4296 13.3784 20.8826 13.3784 20.1323V12.9421C13.3784 12.2754 13.3832 11.5929 13.394 10.8944C13.4043 10.1964 13.4145 9.52964 13.4253 8.89376C13.4356 8.25823 13.4512 7.69024 13.4722 7.19L13.2844 7.00235L7.7788 9.34705L8.1542 10.2223C8.2583 10.1808 8.378 10.1442 8.514 10.1129C8.6493 10.0816 8.8214 10.066 9.0301 10.066C9.5512 10.066 9.864 10.233 9.9686 10.5662C10.0727 10.8997 10.125 11.3687 10.125 11.973V20.1636C10.125 20.8934 9.9578 21.4297 9.6245 21.7736C9.2914 22.1168 8.7089 22.2886 7.8779 22.2894C7.0674 22.2887 6.4848 22.1169 6.1313 21.7736C5.7764 21.4297 5.5994 20.8827 5.5994 20.1324V5.97095C5.5994 5.32518 5.6043 4.64764 5.6151 3.93893C5.6253 3.23058 5.6356 2.55317 5.6464 1.90693C5.6567 1.26117 5.6723 0.687764 5.6933 0.187528L5.5055 0L0 2.3134L0.344101 3.1887C0.448201 3.14717 0.562998 3.11046 0.688198 3.07929C0.813198 3.04799 1.001 3.03246 1.2513 3.03246C1.7517 3.03246 2.0592 3.19952 2.1741 3.53258C2.2885 3.86623 2.3461 4.33517 2.3461 4.9394V20.1639C2.3461 20.9141 2.1687 21.4563 1.8143 21.7894C1.4594 22.123 0.8652 22.2896 0.0312996 22.2896V23.2587H23.0026V22.2896C22.377 22.2896 21.9234 22.123 21.6418 21.7894C21.3602 21.4562 21.2196 20.9039 21.2196 20.1326V11.098C21.6575 10.6188 22.2049 10.2021 22.8618 9.84753C23.5187 9.4934 24.1389 9.31599 24.7231 9.31599C25.8282 9.31599 26.5999 9.6707 27.0378 10.3789C27.4759 11.0876 27.6948 12.0357 27.6948 13.2237V20.1639C27.6948 20.9141 27.554 21.4563 27.2724 21.7894C26.9909 22.123 26.5374 22.2896 25.9117 22.2896V23.2587H33.2316V22.2896C32.3972 22.2896 31.8083 22.123 31.4642 21.7894C31.1201 21.4562 30.9479 20.9034 30.9479 20.1321Z" fill="#E3E3E3"/>
  </g>
  <!-- i dot -->
  <g transform="translate(56.09, 0.31)">
    <path d="M2.1896 4.43918C2.8358 4.43918 3.373 4.21553 3.8006 3.76706C4.2278 3.31906 4.442 2.79305 4.442 2.18835C4.442 1.56317 4.2278 1.04236 3.8006 0.625177C3.373 0.208471 2.8466 0 2.2209 0C1.6369 0 1.1207 0.203292 0.672501 0.609645C0.223801 1.01611 0 1.54258 0 2.18835C0 2.79305 0.219002 3.31906 0.656902 3.76706C1.0949 4.21553 1.6056 4.43918 2.1896 4.43918Z" fill="#E3E3E3"/>
  </g>
  <!-- e -->
  <g transform="translate(79.48, 7.32)">
    <path d="M12.6064 10.6915C12.2936 11.2127 11.9284 11.7075 11.5116 12.1765C11.0942 12.6454 10.6093 13.0205 10.057 13.3019C9.5042 13.5833 8.8629 13.7239 8.1332 13.7239C6.9445 13.7239 5.9435 13.4113 5.1301 12.786C4.3168 12.1607 3.6961 11.3065 3.2688 10.2225C2.8512 9.16444 2.6392 7.97584 2.6295 6.65874H13.2008L13.4197 6.47124C13.4613 5.22074 13.232 4.11094 12.7315 3.14174C12.231 2.17271 11.5164 1.40671 10.5888 0.843999C9.6605 0.281299 8.5291 0 7.1947 0C5.7763 0 4.5251 0.36494 3.441 1.09412C2.3563 1.82389 1.5117 2.80334 0.907104 4.03274C0.302005 5.26274 0 6.64854 0 8.19054C0 9.79554 0.276302 11.2336 0.829002 12.5046C1.3812 13.7761 2.1687 14.7711 3.1907 15.49C4.2123 16.2091 5.4219 16.5685 6.8192 16.5685C7.8203 16.5685 8.6962 16.3809 9.4469 16.0058C10.1976 15.6306 10.8335 15.1568 11.355 14.5834C11.8761 14.0104 12.3039 13.4165 12.6376 12.8015C12.971 12.1871 13.2423 11.6399 13.4509 11.1602L12.6064 10.6915ZM3.0343 3.98584C3.3052 3.18384 3.7329 2.53753 4.3169 2.04765C4.9006 1.55824 5.6621 1.31294 6.6005 1.31294C7.6846 1.31294 8.5189 1.69341 9.103 2.454C9.6866 3.21504 9.9993 4.28284 10.0415 5.65844H2.6753C2.7358 5.07594 2.8545 4.51804 3.0343 3.98584Z" fill="#E3E3E3"/>
  </g>
</svg>
