<svg preserveAspectRatio="none" width="100%" height="100%" overflow="visible" style="display: block;" viewBox="0 0 13.4509 16.5685" fill="none" xmlns="http://www.w3.org/2000/svg">
<path id="Vector" d="M12.6064 10.6915C12.2936 11.2127 11.9284 11.7075 11.5116 12.1765C11.0942 12.6454 10.6093 13.0205 10.057 13.3019C9.5042 13.5833 8.8629 13.7239 8.1332 13.7239C6.9445 13.7239 5.9435 13.4113 5.1301 12.786C4.3168 12.1607 3.6961 11.3065 3.2688 10.2225C2.8512 9.16444 2.6392 7.97584 2.6295 6.65874H13.2008L13.4197 6.47124C13.4613 5.22074 13.232 4.11094 12.7315 3.14174C12.231 2.17271 11.5164 1.40671 10.5888 0.843999C9.6605 0.281299 8.5291 0 7.1947 0C5.7763 0 4.5251 0.36494 3.441 1.09412C2.3563 1.82389 1.5117 2.80334 0.907104 4.03274C0.302005 5.26274 0 6.64854 0 8.19054C0 9.79554 0.276302 11.2336 0.829002 12.5046C1.3812 13.7761 2.1687 14.7711 3.1907 15.49C4.2123 16.2091 5.4219 16.5685 6.8192 16.5685C7.8203 16.5685 8.6962 16.3809 9.4469 16.0058C10.1976 15.6306 10.8335 15.1568 11.355 14.5834C11.8761 14.0104 12.3039 13.4165 12.6376 12.8015C12.971 12.1871 13.2423 11.6399 13.4509 11.1602L12.6064 10.6915ZM3.0343 3.98584C3.3052 3.18384 3.7329 2.53753 4.3169 2.04765C4.9006 1.55824 5.6621 1.31294 6.6005 1.31294C7.6846 1.31294 8.5189 1.69341 9.103 2.454C9.6866 3.21504 9.9993 4.28284 10.0415 5.65844H2.6753C2.7358 5.07594 2.8545 4.51804 3.0343 3.98584Z" fill="var(--fill-0, #E3E3E3)"/>
</svg>
