<svg preserveAspectRatio="none" width="100%" height="100%" overflow="visible" style="display: block;" viewBox="0 0 149.298 25.963" fill="none" xmlns="http://www.w3.org/2000/svg">
<g id="Group">
<path id="Vector" d="M149.298 0H0V25.963H149.298V0Z" fill="var(--fill-0, #DCDDE2)"/>
<path id="Vector_2" d="M11.9887 21.1063L7.09365 3.62196C7.01934 3.3551 6.8838 3.12467 6.70552 2.9621C6.52725 2.79952 6.31491 2.71272 6.09748 2.71353H3.93337V22.9793H10.9925C11.2749 22.9793 11.5458 22.8327 11.7455 22.5719C11.9452 22.3111 12.0574 21.9574 12.0574 21.5886C12.0562 21.4238 12.0329 21.2606 11.9887 21.1063Z" fill="var(--fill-0, #EEEFF5)"/>
<path id="Vector_3" d="M10.1593 4.54059L12.1259 12.0547C12.1706 12.2274 12.241 12.3868 12.3331 12.5238C12.4252 12.6608 12.5371 12.7727 12.6624 12.8529C12.7877 12.9332 12.924 12.9803 13.0633 12.9915C13.2026 13.0027 13.3422 12.9778 13.4742 12.9183C13.5836 12.8723 13.6856 12.8 13.7747 12.7052L21.289 5.19106C22.0962 4.38357 21.6583 2.7013 20.6449 2.7013H11.1727C10.8902 2.7013 10.6194 2.84782 10.4197 3.10862C10.22 3.36943 10.1078 3.72315 10.1078 4.09198C10.0989 4.24467 10.1165 4.39801 10.1593 4.54059Z" fill="var(--fill-0, #EEEFF5)"/>
<path id="Vector_4" d="M13.7403 17.3504L14.8567 21.9486C14.928 22.2446 15.0696 22.5031 15.2612 22.6867C15.4527 22.8702 15.684 22.9692 15.9216 22.9692H28.9577C29.2536 22.9681 29.537 22.8141 29.7462 22.5409C29.9554 22.2678 30.0733 21.8976 30.0741 21.5113C30.0727 21.4323 30.0669 21.3536 30.057 21.2757L28.6915 11.1036C28.6513 10.8075 28.5425 10.5347 28.3797 10.3221C28.2168 10.1094 28.0079 9.96728 27.7812 9.91482L22.0876 8.61386C21.9379 8.57909 21.7844 8.58505 21.6366 8.63137C21.4889 8.67768 21.35 8.76336 21.2288 8.88302L14.1439 15.7579C13.9554 15.9325 13.8146 16.1812 13.742 16.4677C13.6693 16.7542 13.6688 17.0635 13.7403 17.3504Z" fill="var(--fill-0, #EEEFF5)"/>
<path id="Vector_5" d="M26.8024 6.53688L29.9713 7.24343C30.1287 7.27721 30.2898 7.26666 30.4439 7.21251C30.5979 7.15835 30.7413 7.06182 30.8644 6.92941L32.393 5.292C33.2089 4.42843 32.7366 2.7013 31.6889 2.7013H27.79C27.5149 2.7028 27.2495 2.83426 27.0429 3.0714L26.2442 4.01347C26.0894 4.19751 25.9771 4.43451 25.9201 4.69762C25.8632 4.96072 25.8638 5.23941 25.9219 5.50209C25.98 5.76477 26.0933 6.00094 26.2489 6.18383C26.4045 6.36673 26.5963 6.48903 26.8024 6.53688Z" fill="var(--fill-0, #EEEFF5)"/>
<path id="Vector_6" d="M31.0788 12.5609L32.7791 21.8583C32.8367 22.1789 32.976 22.4645 33.1742 22.6683C33.3723 22.872 33.6176 22.9818 33.8698 22.9798H37.4766C37.6233 22.9802 37.7686 22.9427 37.9042 22.8696C38.0398 22.7964 38.163 22.6891 38.2667 22.5536C38.3704 22.4181 38.4526 22.2573 38.5086 22.0802C38.5646 21.9031 38.5933 21.7134 38.593 21.5218C38.5907 21.2972 38.5527 21.0757 38.4814 20.8713L35.0892 11.8992C35.0084 11.6834 34.8874 11.4975 34.7374 11.3584C34.5874 11.2193 34.4131 11.1315 34.2305 11.103L32.3154 10.7777C32.1705 10.7534 32.0233 10.7666 31.8823 10.8165C31.7413 10.8665 31.6092 10.9522 31.4935 11.0689C31.3779 11.1855 31.281 11.3308 31.2083 11.4963C31.1357 11.6619 31.0887 11.8445 31.0702 12.0338C31.0386 12.2076 31.0415 12.3891 31.0788 12.5609Z" fill="var(--fill-0, #EEEFF5)"/>
<path id="Vector_7" d="M35.1407 8.3996L35.9652 8.60147C36.1207 8.64028 36.2683 8.72121 36.3985 8.83903C36.5286 8.95686 36.6385 9.10898 36.7209 9.28559L38.6102 13.4352C38.7611 13.7675 39.0066 14.0083 39.293 14.105C39.5794 14.2016 39.8835 14.1463 40.1388 13.9511C40.2464 13.8685 40.3423 13.7623 40.4222 13.6371L45.9699 5.11357C46.1073 4.90149 46.1956 4.64253 46.2241 4.36717C46.2527 4.09182 46.2204 3.81154 46.131 3.55934C46.0417 3.30715 45.8991 3.09355 45.7199 2.9437C45.5407 2.79385 45.3325 2.71399 45.1197 2.71353H37.8287C37.56 2.71308 37.3005 2.84069 37.0987 3.07241L34.6255 5.87619C34.5153 6.00221 34.4254 6.15552 34.3609 6.32725C34.2965 6.49898 34.2588 6.68571 34.25 6.87661C34.2412 7.06752 34.2615 7.2588 34.3098 7.43937C34.358 7.61995 34.4332 7.78622 34.531 7.92856C34.6856 8.17421 34.9014 8.34097 35.1407 8.3996Z" fill="var(--fill-0, #EEEFF5)"/>
<path id="Vector_8" d="M40.3367 18.2688L41.5132 22.0596C41.596 22.3279 41.7384 22.5578 41.922 22.7197C42.1056 22.8816 42.3222 22.968 42.5437 22.968H55.5198C55.6665 22.9684 55.8118 22.9309 55.9473 22.8578C56.0829 22.7847 56.2061 22.6773 56.3098 22.5418C56.4136 22.4064 56.4958 22.2455 56.5518 22.0684C56.6078 21.8914 56.6365 21.7016 56.6362 21.51C56.6348 21.2889 56.5968 21.0708 56.5245 20.8708L50.8309 5.71913C50.7525 5.50878 50.6366 5.32612 50.4928 5.18657C50.3491 5.04701 50.1817 4.95464 50.0049 4.91726C49.8281 4.87987 49.647 4.89856 49.4769 4.97176C49.3068 5.04495 49.1526 5.1705 49.0274 5.33781L40.5599 16.6987C40.4114 16.905 40.3115 17.1626 40.2719 17.441C40.2323 17.7194 40.2548 18.0067 40.3367 18.2688Z" fill="var(--fill-0, #EEEFF5)"/>
<path id="Vector_9" d="M53.536 4.82268L56.7564 13.6714C56.8188 13.8448 56.9067 14.0004 57.0152 14.1292C57.1237 14.2581 57.2506 14.3577 57.3886 14.4223C57.5267 14.4869 57.6731 14.5152 57.8196 14.5057C57.9661 14.4962 58.1097 14.449 58.2421 14.3668C58.2936 14.3361 58.3425 14.2985 58.3881 14.2546L68.3241 5.60774C69.2344 4.81146 68.8136 2.94975 67.7144 2.93854L54.5494 2.73667C54.4027 2.73334 54.257 2.76788 54.1205 2.83829C53.9841 2.9087 53.8596 3.0136 53.7543 3.14698C53.649 3.28036 53.5649 3.43958 53.5068 3.61551C53.4487 3.79145 53.4178 3.98063 53.4158 4.1722C53.421 4.39755 53.462 4.61903 53.536 4.82268Z" fill="var(--fill-0, #EEEFF5)"/>
<path id="Vector_10" d="M58.8001 18.9415L59.865 22.0929C59.9521 22.3523 60.0951 22.5731 60.2765 22.7284C60.4579 22.8836 60.67 22.9668 60.8869 22.9677H75.1082C75.2549 22.9681 75.4002 22.9306 75.5357 22.8575C75.6713 22.7844 75.7945 22.677 75.8982 22.5415C76.002 22.4061 76.0842 22.2452 76.1402 22.0681C76.1962 21.8911 76.2249 21.7013 76.2246 21.5097C76.226 21.4609 76.2231 21.412 76.216 21.3639L75.0309 6.23475C75.011 5.98666 74.9428 5.74936 74.8328 5.54545C74.7227 5.34154 74.5746 5.17781 74.4024 5.06987C74.2302 4.96193 74.0397 4.91337 73.8491 4.92881C73.6584 4.94425 73.474 5.02319 73.3133 5.15809L59.2209 17.1358C58.9969 17.3212 58.8312 17.6054 58.754 17.9367C58.6767 18.268 58.6931 18.6246 58.8001 18.9415Z" fill="var(--fill-0, #EEEFF5)"/>
<path id="Vector_11" d="M77.7362 4.3275L78.5692 13.6473C78.6042 14.0305 78.7538 14.3802 78.9856 14.6197C79.2173 14.8593 79.5122 14.9693 79.8059 14.9258C79.8316 14.9258 79.8488 14.9146 79.8746 14.9146L94.5853 11.4827C94.8432 11.4226 95.0767 11.2457 95.2447 10.9832C95.4127 10.7207 95.5046 10.3893 95.5042 10.0472V4.15927C95.5045 3.9677 95.4758 3.77794 95.4198 3.60088C95.3638 3.42382 95.2816 3.26294 95.1779 3.12748C95.0742 2.99202 94.951 2.88464 94.8154 2.81151C94.6798 2.73837 94.5345 2.70092 94.3878 2.70131H78.8526C78.7059 2.70092 78.5606 2.73837 78.425 2.81151C78.2895 2.88464 78.1663 2.99202 78.0625 3.12748C77.9588 3.26294 77.8766 3.42382 77.8206 3.60088C77.7646 3.77794 77.7359 3.9677 77.7362 4.15927C77.7276 4.21479 77.7276 4.27199 77.7362 4.3275Z" fill="var(--fill-0, #EEEFF5)"/>
<path id="Vector_12" d="M79.2732 19.4127L79.505 21.7118C79.5398 22.063 79.6715 22.3856 79.8755 22.619C80.0795 22.8523 80.3417 22.9804 80.6128 22.9791H90.8408C90.9875 22.9795 91.1328 22.9421 91.2684 22.8689C91.404 22.7958 91.5272 22.6884 91.6309 22.553C91.7346 22.4175 91.8168 22.2566 91.8728 22.0796C91.9288 21.9025 91.9575 21.7127 91.9572 21.5212V21.3866L91.6481 16.7772C91.6357 16.5861 91.5945 16.4002 91.5269 16.23C91.4592 16.0599 91.3664 15.909 91.2538 15.7859C91.1412 15.6629 91.0111 15.5702 90.871 15.5132C90.7308 15.4562 90.5834 15.436 90.4372 15.4538C90.4029 15.4538 90.3685 15.465 90.3427 15.465L80.192 17.7865C79.9067 17.8474 79.6508 18.0515 79.4791 18.3553C79.3074 18.6592 79.2335 19.0387 79.2732 19.4127Z" fill="var(--fill-0, #EEEFF5)"/>
<path id="Vector_13" d="M94.3879 14.4787L97.7199 13.5927C97.9205 13.5377 98.1288 13.5568 98.3215 13.648C98.5141 13.7391 98.6835 13.8987 98.8106 14.1086L102.821 20.6022C103.006 20.9037 103.092 21.288 103.062 21.6721C103.031 22.0562 102.886 22.4091 102.658 22.6546C102.459 22.8667 102.21 22.9817 101.954 22.9798H95.2037C94.9342 22.9797 94.6738 22.8526 94.4703 22.6218C94.2667 22.3911 94.1338 22.0722 94.0959 21.7237L93.4947 16.1161C93.4563 15.7461 93.5272 15.3707 93.6931 15.0665C93.859 14.7624 94.1075 14.5522 94.3879 14.4787Z" fill="var(--fill-0, #EEEFF5)"/>
<path id="Vector_14" d="M98.1747 8.93692L98.355 4.09198C98.3695 3.71763 98.4933 3.36477 98.701 3.10607C98.9087 2.84736 99.1844 2.7025 99.4714 2.70131H112.027C112.289 2.7008 112.542 2.82079 112.743 3.04022C112.944 3.25965 113.08 3.56452 113.126 3.90132L115.505 21.2511C115.531 21.4397 115.529 21.6333 115.498 21.8206C115.467 22.008 115.408 22.1855 115.324 22.343C115.24 22.5004 115.133 22.6346 115.009 22.7378C114.886 22.8411 114.748 22.9114 114.603 22.9446C114.538 22.9576 114.472 22.9651 114.405 22.967H107.57C107.41 22.9692 107.251 22.925 107.106 22.8378C106.96 22.7505 106.831 22.6223 106.728 22.4624L98.4495 9.95749C98.3545 9.81934 98.2814 9.65808 98.2342 9.48296C98.1871 9.30783 98.1668 9.12227 98.1747 8.93692Z" fill="var(--fill-0, #EEEFF5)"/>
<path id="Vector_15" d="M116.303 4.41823L117.454 13.0427C117.504 13.4232 117.668 13.7621 117.91 13.985C118.151 14.2079 118.451 14.2965 118.742 14.2315C118.886 14.1998 119.023 14.1312 119.146 14.0296L129.606 5.40516C130.55 4.6201 130.13 2.71353 129.013 2.71353H117.403C117.256 2.71315 117.111 2.7506 116.975 2.82373C116.839 2.89686 116.716 3.00424 116.613 3.1397C116.509 3.27516 116.427 3.43604 116.371 3.6131C116.315 3.79017 116.286 3.97993 116.286 4.1715C116.288 4.25412 116.294 4.33652 116.303 4.41823Z" fill="var(--fill-0, #EEEFF5)"/>
<path id="Vector_16" d="M118.356 18.5391L118.674 21.7018C118.71 22.0522 118.842 22.3738 119.046 22.6068C119.249 22.8398 119.511 22.9685 119.782 22.9691H137.601C137.748 22.9694 137.893 22.932 138.029 22.8589C138.164 22.7857 138.287 22.6783 138.391 22.5429C138.495 22.4074 138.577 22.2465 138.633 22.0695C138.689 21.8924 138.718 21.7027 138.717 21.5111C138.716 21.2424 138.66 20.979 138.554 20.7485L132.517 7.99687C132.363 7.6692 132.115 7.4346 131.829 7.34425C131.543 7.2539 131.24 7.31515 130.989 7.51462L118.888 17.1035C118.701 17.2478 118.551 17.461 118.456 17.7163C118.362 17.9717 118.327 18.2579 118.356 18.5391Z" fill="var(--fill-0, #EEEFF5)"/>
<path id="Vector_17" d="M144.772 2.70132H137.438C137.222 2.69983 137.01 2.78175 136.828 2.93684L134.905 4.58547C134.657 4.79738 134.484 5.12865 134.423 5.50691C134.362 5.88517 134.418 6.27966 134.578 6.60419C134.578 6.60716 134.579 6.61001 134.581 6.61212C134.583 6.61422 134.585 6.6154 134.587 6.6154L137.919 13.1314C138 13.2909 138.104 13.4279 138.226 13.5346C138.347 13.6413 138.484 13.7155 138.628 13.753C138.771 13.7906 138.919 13.7906 139.063 13.7532C139.207 13.7158 139.343 13.6417 139.465 13.5351L139.568 13.4342L144.781 7.70327L144.772 2.70132Z" fill="var(--fill-0, #EEEFF5)"/>
<path id="Vector_18" d="M144.772 11.1249L140.409 15.5998C140.19 15.8249 140.044 16.1493 139.999 16.5087C139.955 16.868 140.015 17.2361 140.169 17.54L142.556 22.3064C142.657 22.51 142.796 22.6772 142.96 22.7928C143.123 22.9084 143.306 22.9687 143.492 22.9681H144.772V11.1249Z" fill="var(--fill-0, #EEEFF5)"/>
</g>
</svg>
