<svg preserveAspectRatio="none" width="100%" height="100%" overflow="visible" style="display: block;" viewBox="0 0 16 16" fill="none" xmlns="http://www.w3.org/2000/svg">
<g id="SVG">
<path id="Vector" d="M13.3333 4.66667H11.3333C10.9797 4.66667 10.6406 4.52619 10.3905 4.27614C10.1405 4.02609 10 3.68696 10 3.33333V1.33333" stroke="var(--stroke-0, #151515)" stroke-width="1.33333" stroke-linecap="round" stroke-linejoin="round"/>
<path id="Vector_2" d="M6 12C5.64638 12 5.30724 11.8595 5.05719 11.6095C4.80714 11.3594 4.66667 11.0203 4.66667 10.6667V2.66667C4.66667 2.31304 4.80714 1.97391 5.05719 1.72386C5.30724 1.47381 5.64638 1.33333 6 1.33333H10.6667L13.3333 4V10.6667C13.3333 11.0203 13.1929 11.3594 12.9428 11.6095C12.6928 11.8595 12.3536 12 12 12H6Z" stroke="var(--stroke-0, #151515)" stroke-width="1.33333" stroke-linecap="round" stroke-linejoin="round"/>
<path id="Vector_3" d="M2 5.06667V13.6C2 13.8829 2.11238 14.1542 2.31242 14.3542C2.51246 14.5543 2.78377 14.6667 3.06667 14.6667H9.6" stroke="var(--stroke-0, #151515)" stroke-width="1.33333" stroke-linecap="round" stroke-linejoin="round"/>
</g>
</svg>
