<svg preserveAspectRatio="none" width="100%" height="100%" overflow="visible" style="display: block;" viewBox="0 0 34.3394 23.5087" fill="none" xmlns="http://www.w3.org/2000/svg">
<path id="Vector" d="M34.3394 9.28459C34.3394 8.65941 34.1516 8.17471 33.7763 7.83094C33.401 7.48718 32.9106 7.31518 32.3061 7.31518C31.8055 7.31518 31.3099 7.44023 30.8202 7.69023C30.33 7.94035 29.8608 8.26376 29.4126 8.65941C28.9638 9.05553 28.5523 9.47223 28.177 9.90988C28.177 9.47223 28.1818 9.03988 28.1927 8.61247C28.2029 8.18565 28.2186 7.79482 28.2395 7.44023L28.0517 7.25259L22.5775 9.59729L22.9529 10.4726C23.0569 10.4311 23.1767 10.3945 23.3126 10.3632C23.448 10.3319 23.62 10.3162 23.8288 10.3162C24.3499 10.3162 24.6627 10.4833 24.7673 10.8165C24.8714 11.15 24.9236 11.6189 24.9236 12.2233V20.4139C24.9236 21.1436 24.7462 21.68 24.3918 22.0239C24.1851 22.2244 23.7703 22.5335 23.1003 22.5335C22.7245 22.5335 22.3131 22.4434 21.9751 22.2115C21.7292 22.0428 21.4951 21.7582 21.2556 21.3831C21.0156 21.008 20.7395 20.4975 20.4267 19.8512L11.5115 0H11.1987L2.59635 19.6948C2.17891 20.6952 1.7723 21.3936 1.3764 21.7894C0.980505 22.1852 0.521035 22.4356 0 22.5396V23.5087H5.94352V22.5396C5.54716 22.5396 5.16633 22.4302 4.80174 22.2114C4.43657 21.9926 4.20737 21.6281 4.11354 21.1172C4.0196 20.6068 4.17064 19.9034 4.56712 19.0071L5.55563 16.7249H14.9695L15.9223 18.882C16.2141 19.5907 16.3549 20.1745 16.3446 20.6326C16.3339 21.0913 16.2087 21.4611 15.9693 21.7425C15.7294 22.0238 15.4322 22.2271 15.0778 22.352C14.723 22.4771 14.3686 22.5396 14.0143 22.5396V23.5087H30.4608V22.5396C29.6681 22.5396 29.0893 22.3678 28.7246 22.0238C28.3595 21.6799 28.1774 21.1328 28.1774 20.3826V11.6606C28.4901 11.2439 28.8132 10.8634 29.147 10.5195C29.4803 10.1756 29.8142 10.0036 30.148 10.0036C30.3772 10.0036 30.5596 10.0613 30.6954 10.1755C30.8307 10.2904 30.9716 10.4256 31.1177 10.582C31.2633 10.7384 31.4461 10.8844 31.6651 11.0196C31.884 11.1554 32.1813 11.2228 32.5566 11.2228C33.1197 11.2228 33.5576 11.0249 33.8704 10.6288C34.1831 10.2332 34.3394 9.78482 34.3394 9.28459ZM6.17826 15.2868L10.2162 5.96471L14.334 15.2868H6.17826Z" fill="var(--fill-0, #E3E3E3)"/>
</svg>
