<svg preserveAspectRatio="none" width="100%" height="100%" overflow="visible" style="display: block;" viewBox="0 0 33.7374 52.3702" fill="none" xmlns="http://www.w3.org/2000/svg">
<g id="Group">
<path id="Vector" d="M11.7333 27.8132C11.7333 27.8132 10.7544 26.7704 9.0037 27.0675C7.25297 27.3647 4.71357 29.0074 2.63283 33.2909C-1.52305 41.8297 0.484973 52.3702 0.484973 52.3702C0.484973 52.3702 4.46747 51.675 5.27291 48.2381C6.59855 42.6035 8.78556 42.424 9.75322 40.4169C10.8271 38.2751 10.5195 36.638 9.62457 31.5024C9.14354 28.7383 10.3238 27.5217 11.7333 27.8132Z" fill="var(--fill-0, #34AB53)"/>
<path id="Vector_2" d="M17.1476 0C17.1476 0 17.0637 1.3568 15.1619 3.94706C12.6113 7.33345 10.374 11.8244 12.891 17.5431C15.408 23.2619 16.9182 27.0071 17.1476 30.4776C17.1476 30.4776 17.7573 26.0035 20.0002 22.875C21.9523 20.1502 24.6427 16.7638 24.0274 10.6526C23.4122 4.54136 17.1476 0 17.1476 0Z" fill="var(--fill-0, #34AB53)"/>
<path id="Vector_3" d="M32.0542 14.1794C32.0542 14.1794 22.6573 22.7575 18.4623 39.9699C18.4623 39.9699 19.581 36.8302 22.8251 36.662C26.0693 36.4938 31.3159 32.5972 31.6459 26.8672C32.0542 19.9318 35.8745 20.9746 32.0542 14.1794Z" fill="var(--fill-0, #34AB53)"/>
<path id="Vector_4" d="M17.1755 52.0966H16.2806V38.9771C16.2806 33.92 14.7256 31.0269 13.4168 29.4907C13.0099 29.0137 12.5106 28.6245 11.949 28.3469C11.3875 28.0693 10.7755 27.9091 10.1502 27.876C9.54062 27.8405 8.93028 27.9317 8.35754 28.144C7.78481 28.3563 7.26206 28.685 6.82215 29.1095C6.78859 29.1375 6.76063 29.1712 6.72707 29.2048L6.09501 28.5712L6.20129 28.4647C6.72985 27.9563 7.35725 27.5625 8.04436 27.3078C8.73147 27.0531 9.46356 26.9431 10.195 26.9846C10.9414 27.0239 11.672 27.2151 12.3423 27.5467C13.0126 27.8783 13.6084 28.3433 14.0936 28.9132C15.4975 30.5672 17.1699 33.6508 17.1699 38.9827L17.1755 52.0966Z" fill="var(--fill-0, #34AB53)"/>
<path id="Vector_5" d="M17.1757 46.3222H16.2807C16.2807 39.0504 16.9743 24.6358 16.9799 24.4901L17.8749 24.5349C17.8692 24.6807 17.1757 39.0729 17.1757 46.3222Z" fill="var(--fill-0, #34AB53)"/>
<path id="Vector_6" d="M17.1757 52.0979H16.2807C16.2807 49.7375 16.6108 45.7456 18.1713 40.1614C19.1054 36.8255 20.0507 34.4595 20.0619 34.437L20.8897 34.7734C20.8561 34.8688 17.1757 44.0972 17.1757 52.0979Z" fill="var(--fill-0, #34AB53)"/>
<path id="Vector_7" d="M32.054 14.1794C32.4232 16.2202 32.7252 18.4292 31.7184 20.2346C31.1815 21.1877 30.3033 21.9726 30.046 23.0435C29.7607 24.2433 30.3425 25.4599 30.6333 26.6598C30.9633 27.9885 30.8682 29.5584 29.8838 30.5115C28.9217 31.4366 27.5178 31.3132 26.5781 32.0365C25.9013 32.5523 25.5489 33.6064 25.0623 34.3072C23.457 36.5891 21.3483 36.903 21.0071 37.1329C21.5765 36.8536 22.1972 36.6952 22.8305 36.6676C26.0747 36.4994 31.3213 32.6028 31.6513 26.8728C32.054 19.9318 35.8743 20.9746 32.054 14.1794Z" fill="var(--fill-0, #2B9962)"/>
<path id="Vector_8" d="M16.3087 19.0179C16.4206 18.9955 16.5324 19.0011 16.6443 18.9843C17.2372 18.8946 17.5448 18.1601 17.4106 17.577C17.2764 16.9939 16.8401 16.5286 16.4374 16.0856C15.5144 15.0764 14.6419 13.9944 14.0714 12.7497C13.5008 11.505 13.2547 10.0697 13.6183 8.75219C14.0546 7.16551 15.2795 5.94888 16.208 4.58647C17.0526 3.3418 17.6511 1.68785 17.0862 0.342262C16.9464 0.897317 16.5157 2.11395 15.1677 3.94732C12.6171 7.33371 10.3797 11.8246 12.8967 17.5434C14.7481 21.7539 16.057 24.8936 16.7058 27.6465C15.699 23.7667 16.8177 22.9145 16.0402 21.1652C15.8724 20.784 15.6767 20.3971 15.6711 19.9822C15.6655 19.5673 15.9003 19.102 16.3087 19.0179Z" fill="var(--fill-0, #2B9962)"/>
<path id="Vector_9" d="M19.1166 11.1796C19.1333 12.7382 18.8425 14.4371 19.6703 15.7602C20.101 16.4442 20.789 16.9432 21.1805 17.6496C21.4043 18.0533 21.4882 18.6364 21.1246 18.928C20.9943 19.0253 20.8391 19.0836 20.6771 19.0962C20.073 19.1634 19.4857 18.8158 19.0886 18.3561C18.6915 17.8963 18.4342 17.3357 18.1433 16.7974C17.6796 15.9445 17.1183 15.1486 16.4709 14.4258C16.1744 14.095 15.8556 13.7755 15.6878 13.3662C15.4753 12.8504 15.5368 12.2561 15.671 11.7122C15.8836 10.8264 16.4821 9.52566 17.4665 9.29018C18.5741 9.02667 19.111 10.2938 19.1166 11.1796Z" fill="var(--fill-0, #2B9962)"/>
<path id="Vector_10" d="M21.6516 15.9548C22.2122 15.7806 22.4664 14.992 22.2194 14.1935C21.9723 13.395 21.3176 12.889 20.757 13.0632C20.1964 13.2375 19.9422 14.0261 20.1893 14.8246C20.4363 15.6231 21.091 16.1291 21.6516 15.9548Z" fill="var(--fill-0, #2B9962)"/>
<path id="Vector_11" d="M2.0957 51.3847C1.72653 51.7099 1.31821 51.9902 0.909897 52.2761C1.95586 51.9902 4.6295 50.9922 5.27274 48.245C6.59837 42.6103 8.78539 42.4309 9.75304 40.4238C10.827 38.282 10.5193 36.6449 9.6244 31.5092C9.32235 29.7936 9.66914 28.6723 10.3068 28.1397C10.2252 28.1246 10.1415 28.1265 10.0607 28.1453C9.23286 28.3471 8.58962 29.5413 8.36029 30.2702C8.0135 31.3691 8.08062 32.5521 8.17012 33.7014C8.25961 34.8508 8.37148 36.0226 8.10859 37.1495C7.78417 38.5511 6.89482 39.7622 5.87123 40.7714C4.84205 41.7806 3.66744 42.6159 2.57673 43.5523C2.07892 43.9784 1.5867 44.4493 1.36855 45.066C1.15041 45.6828 1.30703 46.4789 1.87755 46.7985C2.21316 46.9835 2.62147 46.9723 3.00182 47.0284C3.38217 47.0844 3.80168 47.2526 3.93033 47.6114C4.00304 47.8133 3.96948 48.0319 3.92473 48.2394C3.66283 49.4556 3.02237 50.5569 2.0957 51.3847Z" fill="var(--fill-0, #2B9962)"/>
<path id="Vector_12" d="M21.3817 32.8833C21.6893 32.5469 21.9019 32.1376 22.1592 31.762C22.8778 30.7234 23.9333 29.9666 25.146 29.6203C26.3039 29.2951 27.5792 29.3568 28.6363 28.7849C28.9216 28.6279 29.2012 28.4148 29.3075 28.1065C29.5257 27.4785 28.9048 26.8282 28.256 26.6992C27.3386 26.5198 26.4437 27.0076 25.5264 26.873C24.7265 26.7553 24.3685 26.1834 23.8372 25.6788C22.5238 28.1766 21.3874 30.7639 20.4364 33.4215C20.7888 33.3823 21.13 33.158 21.3817 32.8833Z" fill="var(--fill-0, #2B9962)"/>
<path id="Vector_13" d="M6.90069 37.3059C7.2307 36.6836 7.34816 35.7753 6.76085 35.3941C6.38609 35.153 5.8715 35.2539 5.49115 35.495C5.1108 35.7361 4.81995 36.0893 4.48434 36.3809C3.925 36.8686 3.10837 37.2555 2.35326 37.0424C2.08478 36.9695 1.73799 36.6332 1.3912 36.4145C0.568971 39.0104 0.194214 41.6455 0.0599723 44.0059C0.249866 43.6755 0.457113 43.3555 0.680838 43.0471C2.38677 40.7708 5.575 39.8233 6.90069 37.3059Z" fill="var(--fill-0, #2B9962)"/>
<path id="Vector_14" d="M26.7245 25.4184C27.3871 25.3723 27.8938 24.8967 27.8564 24.3561C27.819 23.8156 27.2515 23.4147 26.589 23.4608C25.9264 23.5069 25.4196 23.9825 25.457 24.5231C25.4945 25.0636 26.0619 25.4645 26.7245 25.4184Z" fill="var(--fill-0, #2B9962)"/>
<path id="Vector_15" d="M3.63739 36.1126C4.08327 35.8587 4.27775 35.3583 4.07177 34.9948C3.8658 34.6313 3.33736 34.5425 2.89147 34.7963C2.44559 35.0502 2.25111 35.5507 2.45709 35.9142C2.66306 36.2776 3.1915 36.3665 3.63739 36.1126Z" fill="var(--fill-0, #2B9962)"/>
</g>
</svg>
